<svg width="775" height="585" viewBox="0 0 775 585" fill="none" xmlns="http://www.w3.org/2000/svg">
<rect width="775" height="584.285" transform="translate(0 0.553711)" fill="#070707"/>
<path d="M353.174 160.905V164.487L356.353 160.905H357.433L354.819 163.871L357.564 167.969H356.545L354.234 164.537L353.174 165.728V167.969H352.296V160.905H353.174ZM364.119 160.905V165.748C364.119 167.111 363.141 168.069 361.758 168.069C360.376 168.069 359.397 167.111 359.397 165.748V160.905H360.275V165.748C360.275 166.657 360.88 167.262 361.758 167.262C362.646 167.262 363.242 166.657 363.242 165.748V160.905H364.119ZM366.497 167.969V160.905H368.879C370.009 160.905 370.826 161.661 370.826 162.711C370.826 163.407 370.463 163.972 369.888 164.255V164.295C370.604 164.558 371.048 165.193 371.048 166.021C371.048 167.151 370.19 167.969 369.01 167.969H366.497ZM367.375 163.912H368.919C369.535 163.912 369.958 163.438 369.958 162.782C369.958 162.126 369.545 161.692 368.919 161.692H367.375V163.912ZM367.375 167.181H369.04C369.706 167.181 370.16 166.677 370.16 165.94C370.16 165.203 369.706 164.699 369.04 164.699H367.375V167.181ZM373.587 167.969V160.905H377.785V161.692H374.465V163.912H377.341V164.699H374.465V167.181H377.785V167.969H373.587ZM381.122 164.053H382.847C383.513 164.053 383.957 163.579 383.957 162.872C383.957 162.166 383.513 161.692 382.847 161.692H381.122V164.053ZM380.244 167.969V160.905H382.797C383.977 160.905 384.805 161.712 384.805 162.872C384.805 163.831 384.24 164.548 383.372 164.77L385.007 167.969H384.048L382.444 164.84H381.122V167.969H380.244ZM390.775 166.687V160.905H391.592V167.969H390.462L387.647 161.813H387.606V167.969H386.789V160.905H388.081L390.735 166.687H390.775ZM394.343 167.969V160.905H398.541V161.692H395.221V163.912H398.097V164.699H395.221V167.181H398.541V167.969H394.343ZM402.473 167.969V161.692H400.344V160.905H405.47V161.692H403.351V167.969H402.473ZM407.696 167.969V160.905H411.894V161.692H408.574V163.912H411.45V164.699H408.574V167.181H411.894V167.969H407.696ZM414.554 166.172H415.382C415.453 166.848 416.088 167.323 416.936 167.323C417.824 167.323 418.429 166.808 418.429 166.051C418.429 165.405 417.985 165.012 417.087 164.82L416.674 164.739C415.402 164.487 414.746 163.841 414.746 162.812C414.746 161.621 415.634 160.804 416.926 160.804C418.177 160.804 419.146 161.571 419.206 162.6H418.379C418.298 162.005 417.703 161.581 416.946 161.581C416.139 161.581 415.604 162.055 415.604 162.761C415.604 163.367 416.008 163.75 416.795 163.912L417.208 163.993C418.591 164.275 419.297 164.941 419.297 166.011C419.297 167.252 418.339 168.11 416.956 168.11C415.604 168.11 414.595 167.292 414.554 166.172Z" fill="#FDFDFC"/>
<g clip-path="url(#clip0_184_8345)">
<g opacity="0.7">
<path fill-rule="evenodd" clip-rule="evenodd" d="M-620.504 533.706L-183.027 96.2294L-182.264 96.9923L-619.741 534.469L-620.504 533.706Z" fill="#1F1F1F"/>
<path fill-rule="evenodd" clip-rule="evenodd" d="M-613.807 533.706L-176.33 96.2294L-175.568 96.9923L-613.044 534.469L-613.807 533.706Z" fill="#1F1F1F"/>
<path fill-rule="evenodd" clip-rule="evenodd" d="M-607.111 533.706L-169.634 96.2294L-168.871 96.9923L-606.348 534.469L-607.111 533.706Z" fill="#1F1F1F"/>
<path fill-rule="evenodd" clip-rule="evenodd" d="M-600.414 533.706L-162.937 96.2294L-162.174 96.9923L-599.651 534.469L-600.414 533.706Z" fill="#1F1F1F"/>
<path fill-rule="evenodd" clip-rule="evenodd" d="M-593.717 533.706L-156.241 96.2294L-155.478 96.9923L-592.955 534.469L-593.717 533.706Z" fill="#1F1F1F"/>
<path fill-rule="evenodd" clip-rule="evenodd" d="M-587.021 533.706L-149.544 96.2294L-148.781 96.9923L-586.258 534.469L-587.021 533.706Z" fill="#1F1F1F"/>
<path fill-rule="evenodd" clip-rule="evenodd" d="M-580.324 533.706L-142.847 96.2294L-142.085 96.9923L-579.561 534.469L-580.324 533.706Z" fill="#1F1F1F"/>
<path fill-rule="evenodd" clip-rule="evenodd" d="M-573.628 533.706L-136.151 96.2294L-135.388 96.9923L-572.865 534.469L-573.628 533.706Z" fill="#1F1F1F"/>
<path fill-rule="evenodd" clip-rule="evenodd" d="M-566.931 533.706L-129.454 96.2294L-128.691 96.9923L-566.168 534.469L-566.931 533.706Z" fill="#1F1F1F"/>
<path fill-rule="evenodd" clip-rule="evenodd" d="M-560.234 533.706L-122.758 96.2294L-121.995 96.9923L-559.472 534.469L-560.234 533.706Z" fill="#1F1F1F"/>
<path fill-rule="evenodd" clip-rule="evenodd" d="M-553.538 533.706L-116.061 96.2294L-115.298 96.9923L-552.775 534.469L-553.538 533.706Z" fill="#1F1F1F"/>
<path fill-rule="evenodd" clip-rule="evenodd" d="M-546.841 533.706L-109.364 96.2294L-108.602 96.9923L-546.078 534.469L-546.841 533.706Z" fill="#1F1F1F"/>
<path fill-rule="evenodd" clip-rule="evenodd" d="M-540.145 533.706L-102.668 96.2294L-101.905 96.9923L-539.382 534.469L-540.145 533.706Z" fill="#1F1F1F"/>
<path fill-rule="evenodd" clip-rule="evenodd" d="M-533.448 533.706L-95.9712 96.2294L-95.2083 96.9923L-532.685 534.469L-533.448 533.706Z" fill="#1F1F1F"/>
<path fill-rule="evenodd" clip-rule="evenodd" d="M-526.751 533.706L-89.2746 96.2294L-88.5117 96.9923L-525.989 534.469L-526.751 533.706Z" fill="#1F1F1F"/>
<path fill-rule="evenodd" clip-rule="evenodd" d="M-520.055 533.706L-82.578 96.2294L-81.8151 96.9923L-519.292 534.469L-520.055 533.706Z" fill="#1F1F1F"/>
<path fill-rule="evenodd" clip-rule="evenodd" d="M-513.358 533.706L-75.8813 96.2294L-75.1185 96.9923L-512.595 534.469L-513.358 533.706Z" fill="#1F1F1F"/>
<path fill-rule="evenodd" clip-rule="evenodd" d="M-506.662 533.706L-69.1848 96.2294L-68.4219 96.9923L-505.899 534.469L-506.662 533.706Z" fill="#1F1F1F"/>
<path fill-rule="evenodd" clip-rule="evenodd" d="M-499.965 533.706L-62.4882 96.2294L-61.7253 96.9923L-499.202 534.469L-499.965 533.706Z" fill="#1F1F1F"/>
<path fill-rule="evenodd" clip-rule="evenodd" d="M-493.268 533.706L-55.7916 96.2294L-55.0287 96.9923L-492.506 534.469L-493.268 533.706Z" fill="#1F1F1F"/>
<path fill-rule="evenodd" clip-rule="evenodd" d="M-486.572 533.706L-49.095 96.2294L-48.332 96.9923L-485.809 534.469L-486.572 533.706Z" fill="#1F1F1F"/>
<path fill-rule="evenodd" clip-rule="evenodd" d="M-479.875 533.706L-42.3983 96.2294L-41.6355 96.9923L-479.112 534.469L-479.875 533.706Z" fill="#1F1F1F"/>
<path fill-rule="evenodd" clip-rule="evenodd" d="M-473.179 533.706L-35.7017 96.2294L-34.9389 96.9923L-472.416 534.469L-473.179 533.706Z" fill="#1F1F1F"/>
<path fill-rule="evenodd" clip-rule="evenodd" d="M-466.482 533.706L-29.0052 96.2294L-28.2422 96.9923L-465.719 534.469L-466.482 533.706Z" fill="#1F1F1F"/>
<path fill-rule="evenodd" clip-rule="evenodd" d="M-459.785 533.706L-22.3086 96.2294L-21.5456 96.9923L-459.023 534.469L-459.785 533.706Z" fill="#1F1F1F"/>
<path fill-rule="evenodd" clip-rule="evenodd" d="M-453.089 533.706L-15.6119 96.2294L-14.8491 96.9923L-452.326 534.469L-453.089 533.706Z" fill="#1F1F1F"/>
<path fill-rule="evenodd" clip-rule="evenodd" d="M-446.392 533.706L-8.91533 96.2294L-8.15251 96.9923L-445.629 534.469L-446.392 533.706Z" fill="#1F1F1F"/>
<path fill-rule="evenodd" clip-rule="evenodd" d="M-439.696 533.706L-2.21877 96.2294L-1.45583 96.9923L-438.933 534.469L-439.696 533.706Z" fill="#1F1F1F"/>
<path fill-rule="evenodd" clip-rule="evenodd" d="M-432.999 533.706L4.47785 96.2294L5.24079 96.9923L-432.236 534.469L-432.999 533.706Z" fill="#1F1F1F"/>
<path fill-rule="evenodd" clip-rule="evenodd" d="M-426.302 533.706L11.1745 96.2294L11.9374 96.9923L-425.54 534.469L-426.302 533.706Z" fill="#1F1F1F"/>
<path fill-rule="evenodd" clip-rule="evenodd" d="M-419.606 533.706L17.8711 96.2294L18.6339 96.9923L-418.843 534.469L-419.606 533.706Z" fill="#1F1F1F"/>
<path fill-rule="evenodd" clip-rule="evenodd" d="M-412.909 533.706L24.5676 96.2294L25.3305 96.9923L-412.146 534.469L-412.909 533.706Z" fill="#1F1F1F"/>
<path fill-rule="evenodd" clip-rule="evenodd" d="M-406.213 533.706L31.2643 96.2294L32.0272 96.9923L-405.45 534.469L-406.213 533.706Z" fill="#1F1F1F"/>
<path fill-rule="evenodd" clip-rule="evenodd" d="M-399.516 533.706L37.9609 96.2294L38.7238 96.9923L-398.753 534.469L-399.516 533.706Z" fill="#1F1F1F"/>
<path fill-rule="evenodd" clip-rule="evenodd" d="M-392.819 533.706L44.6575 96.2294L45.4203 96.9923L-392.057 534.469L-392.819 533.706Z" fill="#1F1F1F"/>
<path fill-rule="evenodd" clip-rule="evenodd" d="M-386.123 533.706L51.3541 96.2294L52.1169 96.9923L-385.36 534.469L-386.123 533.706Z" fill="#1F1F1F"/>
<path fill-rule="evenodd" clip-rule="evenodd" d="M-379.426 533.706L58.0507 96.2294L58.8136 96.9923L-378.663 534.469L-379.426 533.706Z" fill="#1F1F1F"/>
<path fill-rule="evenodd" clip-rule="evenodd" d="M-372.73 533.706L64.7473 96.2294L65.5102 96.9923L-371.967 534.469L-372.73 533.706Z" fill="#1F1F1F"/>
<path fill-rule="evenodd" clip-rule="evenodd" d="M-366.033 533.706L71.4439 96.2294L72.2067 96.9923L-365.27 534.469L-366.033 533.706Z" fill="#1F1F1F"/>
<path fill-rule="evenodd" clip-rule="evenodd" d="M-359.336 533.706L78.1405 96.2294L78.9034 96.9923L-358.574 534.469L-359.336 533.706Z" fill="#1F1F1F"/>
<path fill-rule="evenodd" clip-rule="evenodd" d="M-352.64 533.706L84.8371 96.2294L85.6001 96.9923L-351.877 534.469L-352.64 533.706Z" fill="#1F1F1F"/>
<path fill-rule="evenodd" clip-rule="evenodd" d="M-345.943 533.706L91.5337 96.2294L92.2966 96.9923L-345.18 534.469L-345.943 533.706Z" fill="#1F1F1F"/>
<path fill-rule="evenodd" clip-rule="evenodd" d="M-339.247 533.706L98.2303 96.2294L98.9932 96.9923L-338.484 534.469L-339.247 533.706Z" fill="#1F1F1F"/>
<path fill-rule="evenodd" clip-rule="evenodd" d="M-332.55 533.706L104.927 96.2294L105.69 96.9923L-331.787 534.469L-332.55 533.706Z" fill="#1F1F1F"/>
<path fill-rule="evenodd" clip-rule="evenodd" d="M-325.853 533.706L111.624 96.2294L112.386 96.9923L-325.091 534.469L-325.853 533.706Z" fill="#1F1F1F"/>
<path fill-rule="evenodd" clip-rule="evenodd" d="M-319.157 533.706L118.32 96.2294L119.083 96.9923L-318.394 534.469L-319.157 533.706Z" fill="#1F1F1F"/>
<path fill-rule="evenodd" clip-rule="evenodd" d="M-312.46 533.706L125.017 96.2294L125.78 96.9923L-311.697 534.469L-312.46 533.706Z" fill="#1F1F1F"/>
<path fill-rule="evenodd" clip-rule="evenodd" d="M-305.764 533.706L131.713 96.2294L132.476 96.9923L-305.001 534.469L-305.764 533.706Z" fill="#1F1F1F"/>
<path fill-rule="evenodd" clip-rule="evenodd" d="M-299.067 533.706L138.41 96.2294L139.173 96.9923L-298.304 534.469L-299.067 533.706Z" fill="#1F1F1F"/>
<path fill-rule="evenodd" clip-rule="evenodd" d="M-292.37 533.706L145.107 96.2294L145.869 96.9923L-291.607 534.469L-292.37 533.706Z" fill="#1F1F1F"/>
<path fill-rule="evenodd" clip-rule="evenodd" d="M-285.674 533.706L151.803 96.2294L152.566 96.9923L-284.911 534.469L-285.674 533.706Z" fill="#1F1F1F"/>
<path fill-rule="evenodd" clip-rule="evenodd" d="M-278.977 533.706L158.5 96.2294L159.263 96.9923L-278.214 534.469L-278.977 533.706Z" fill="#1F1F1F"/>
<path fill-rule="evenodd" clip-rule="evenodd" d="M-272.281 533.706L165.196 96.2294L165.959 96.9923L-271.518 534.469L-272.281 533.706Z" fill="#1F1F1F"/>
<path fill-rule="evenodd" clip-rule="evenodd" d="M-265.584 533.706L171.893 96.2294L172.656 96.9923L-264.821 534.469L-265.584 533.706Z" fill="#1F1F1F"/>
<path fill-rule="evenodd" clip-rule="evenodd" d="M-258.887 533.706L178.59 96.2294L179.352 96.9923L-258.124 534.469L-258.887 533.706Z" fill="#1F1F1F"/>
<path fill-rule="evenodd" clip-rule="evenodd" d="M-252.191 533.706L185.286 96.2294L186.049 96.9923L-251.428 534.469L-252.191 533.706Z" fill="#1F1F1F"/>
<path fill-rule="evenodd" clip-rule="evenodd" d="M-245.494 533.706L191.983 96.2294L192.746 96.9923L-244.731 534.469L-245.494 533.706Z" fill="#1F1F1F"/>
<path fill-rule="evenodd" clip-rule="evenodd" d="M-238.798 533.706L198.679 96.2294L199.442 96.9923L-238.035 534.469L-238.798 533.706Z" fill="#1F1F1F"/>
<path fill-rule="evenodd" clip-rule="evenodd" d="M-232.101 533.706L205.376 96.2294L206.139 96.9923L-231.338 534.469L-232.101 533.706Z" fill="#1F1F1F"/>
<path fill-rule="evenodd" clip-rule="evenodd" d="M-225.404 533.706L212.073 96.2294L212.835 96.9923L-224.641 534.469L-225.404 533.706Z" fill="#1F1F1F"/>
<path fill-rule="evenodd" clip-rule="evenodd" d="M-218.708 533.706L218.769 96.2294L219.532 96.9923L-217.945 534.469L-218.708 533.706Z" fill="#1F1F1F"/>
<path fill-rule="evenodd" clip-rule="evenodd" d="M-212.011 533.706L225.466 96.2294L226.229 96.9923L-211.248 534.469L-212.011 533.706Z" fill="#1F1F1F"/>
<path fill-rule="evenodd" clip-rule="evenodd" d="M-205.314 533.706L232.162 96.2294L232.925 96.9923L-204.552 534.469L-205.314 533.706Z" fill="#1F1F1F"/>
<path fill-rule="evenodd" clip-rule="evenodd" d="M-198.618 533.706L238.859 96.2294L239.622 96.9923L-197.855 534.469L-198.618 533.706Z" fill="#1F1F1F"/>
<path fill-rule="evenodd" clip-rule="evenodd" d="M-191.921 533.706L245.556 96.2294L246.319 96.9923L-191.158 534.469L-191.921 533.706Z" fill="#1F1F1F"/>
<path fill-rule="evenodd" clip-rule="evenodd" d="M-185.225 533.706L252.252 96.2294L253.015 96.9923L-184.462 534.469L-185.225 533.706Z" fill="#1F1F1F"/>
<path fill-rule="evenodd" clip-rule="evenodd" d="M-178.528 533.706L258.949 96.2294L259.712 96.9923L-177.765 534.469L-178.528 533.706Z" fill="#1F1F1F"/>
<path fill-rule="evenodd" clip-rule="evenodd" d="M-171.831 533.706L265.645 96.2294L266.408 96.9923L-171.069 534.469L-171.831 533.706Z" fill="#1F1F1F"/>
<path fill-rule="evenodd" clip-rule="evenodd" d="M-165.135 533.706L272.342 96.2294L273.105 96.9923L-164.372 534.469L-165.135 533.706Z" fill="#1F1F1F"/>
<path fill-rule="evenodd" clip-rule="evenodd" d="M-158.438 533.706L279.039 96.2294L279.801 96.9923L-157.675 534.469L-158.438 533.706Z" fill="#1F1F1F"/>
<path fill-rule="evenodd" clip-rule="evenodd" d="M-151.742 533.706L285.735 96.2294L286.498 96.9923L-150.979 534.469L-151.742 533.706Z" fill="#1F1F1F"/>
<path fill-rule="evenodd" clip-rule="evenodd" d="M-145.045 533.706L292.432 96.2294L293.195 96.9923L-144.282 534.469L-145.045 533.706Z" fill="#1F1F1F"/>
<path fill-rule="evenodd" clip-rule="evenodd" d="M-138.348 533.706L299.128 96.2294L299.891 96.9923L-137.586 534.469L-138.348 533.706Z" fill="#1F1F1F"/>
<path fill-rule="evenodd" clip-rule="evenodd" d="M-131.652 533.706L305.825 96.2294L306.588 96.9923L-130.889 534.469L-131.652 533.706Z" fill="#1F1F1F"/>
<path fill-rule="evenodd" clip-rule="evenodd" d="M-124.955 533.706L312.522 96.2294L313.284 96.9923L-124.192 534.469L-124.955 533.706Z" fill="#1F1F1F"/>
<path fill-rule="evenodd" clip-rule="evenodd" d="M-118.259 533.706L319.218 96.2294L319.981 96.9923L-117.496 534.469L-118.259 533.706Z" fill="#1F1F1F"/>
<path fill-rule="evenodd" clip-rule="evenodd" d="M-111.562 533.706L325.915 96.2294L326.678 96.9923L-110.799 534.469L-111.562 533.706Z" fill="#1F1F1F"/>
<path fill-rule="evenodd" clip-rule="evenodd" d="M-104.865 533.706L332.611 96.2294L333.374 96.9923L-104.103 534.469L-104.865 533.706Z" fill="#1F1F1F"/>
<path fill-rule="evenodd" clip-rule="evenodd" d="M-98.1688 533.706L339.308 96.2294L340.071 96.9923L-97.406 534.469L-98.1688 533.706Z" fill="#1F1F1F"/>
<path fill-rule="evenodd" clip-rule="evenodd" d="M-91.4723 533.706L346.005 96.2294L346.768 96.9923L-90.7094 534.469L-91.4723 533.706Z" fill="#1F1F1F"/>
<path fill-rule="evenodd" clip-rule="evenodd" d="M-84.7756 533.706L352.701 96.2294L353.464 96.9923L-84.0128 534.469L-84.7756 533.706Z" fill="#1F1F1F"/>
<path fill-rule="evenodd" clip-rule="evenodd" d="M-78.079 533.706L359.398 96.2294L360.161 96.9923L-77.3162 534.469L-78.079 533.706Z" fill="#1F1F1F"/>
<path fill-rule="evenodd" clip-rule="evenodd" d="M-71.3824 533.706L366.094 96.2294L366.857 96.9923L-70.6196 534.469L-71.3824 533.706Z" fill="#1F1F1F"/>
<path fill-rule="evenodd" clip-rule="evenodd" d="M-64.6858 533.706L372.791 96.2294L373.554 96.9923L-63.923 534.469L-64.6858 533.706Z" fill="#1F1F1F"/>
<path fill-rule="evenodd" clip-rule="evenodd" d="M-57.9892 533.706L379.488 96.2294L380.251 96.9923L-57.2263 534.469L-57.9892 533.706Z" fill="#1F1F1F"/>
<path fill-rule="evenodd" clip-rule="evenodd" d="M-51.2926 533.706L386.184 96.2294L386.947 96.9923L-50.5297 534.469L-51.2926 533.706Z" fill="#1F1F1F"/>
<path fill-rule="evenodd" clip-rule="evenodd" d="M-44.5959 533.706L392.881 96.2294L393.644 96.9923L-43.8331 534.469L-44.5959 533.706Z" fill="#1F1F1F"/>
<path fill-rule="evenodd" clip-rule="evenodd" d="M-37.8993 533.706L399.578 96.2294L400.34 96.9923L-37.1365 534.469L-37.8993 533.706Z" fill="#1F1F1F"/>
<path fill-rule="evenodd" clip-rule="evenodd" d="M-31.2027 533.706L406.274 96.2294L407.037 96.9923L-30.4398 534.469L-31.2027 533.706Z" fill="#1F1F1F"/>
<path fill-rule="evenodd" clip-rule="evenodd" d="M-24.5061 533.706L412.971 96.2294L413.734 96.9923L-23.7432 534.469L-24.5061 533.706Z" fill="#1F1F1F"/>
<path fill-rule="evenodd" clip-rule="evenodd" d="M-17.8094 533.706L419.667 96.2294L420.43 96.9923L-17.0466 534.469L-17.8094 533.706Z" fill="#1F1F1F"/>
<path fill-rule="evenodd" clip-rule="evenodd" d="M-11.1128 533.706L426.364 96.2294L427.127 96.9923L-10.3499 534.469L-11.1128 533.706Z" fill="#1F1F1F"/>
<path fill-rule="evenodd" clip-rule="evenodd" d="M-4.41614 533.706L433.061 96.2294L433.824 96.9923L-3.65326 534.469L-4.41614 533.706Z" fill="#1F1F1F"/>
<path fill-rule="evenodd" clip-rule="evenodd" d="M2.28048 533.706L439.757 96.2294L440.52 96.9923L3.04336 534.469L2.28048 533.706Z" fill="#1F1F1F"/>
<path fill-rule="evenodd" clip-rule="evenodd" d="M8.97716 533.706L446.454 96.2294L447.217 96.9923L9.73999 534.469L8.97716 533.706Z" fill="#1F1F1F"/>
<path fill-rule="evenodd" clip-rule="evenodd" d="M15.6738 533.706L453.151 96.2294L453.914 96.9923L16.4366 534.469L15.6738 533.706Z" fill="#1F1F1F"/>
<path fill-rule="evenodd" clip-rule="evenodd" d="M22.3704 533.706L459.847 96.2294L460.61 96.9923L23.1333 534.469L22.3704 533.706Z" fill="#1F1F1F"/>
<path fill-rule="evenodd" clip-rule="evenodd" d="M29.067 533.706L466.544 96.2294L467.307 96.9923L29.8299 534.469L29.067 533.706Z" fill="#1F1F1F"/>
<path fill-rule="evenodd" clip-rule="evenodd" d="M35.7637 533.706L473.241 96.2294L474.004 96.9923L36.5265 534.469L35.7637 533.706Z" fill="#1F1F1F"/>
<path fill-rule="evenodd" clip-rule="evenodd" d="M42.4603 533.706L479.937 96.2294L480.7 96.9923L43.2231 534.469L42.4603 533.706Z" fill="#1F1F1F"/>
<path fill-rule="evenodd" clip-rule="evenodd" d="M49.1569 533.706L486.634 96.2294L487.397 96.9923L49.9198 534.469L49.1569 533.706Z" fill="#1F1F1F"/>
<path fill-rule="evenodd" clip-rule="evenodd" d="M55.8536 533.706L493.33 96.2294L494.093 96.9923L56.6165 534.469L55.8536 533.706Z" fill="#1F1F1F"/>
<path fill-rule="evenodd" clip-rule="evenodd" d="M62.5502 533.706L500.027 96.2294L500.79 96.9923L63.3131 534.469L62.5502 533.706Z" fill="#1F1F1F"/>
<path fill-rule="evenodd" clip-rule="evenodd" d="M69.2469 533.706L506.724 96.2294L507.487 96.9923L70.0098 534.469L69.2469 533.706Z" fill="#1F1F1F"/>
<path fill-rule="evenodd" clip-rule="evenodd" d="M75.9435 533.706L513.42 96.2294L514.183 96.9923L76.7064 534.469L75.9435 533.706Z" fill="#1F1F1F"/>
<path fill-rule="evenodd" clip-rule="evenodd" d="M82.6402 533.706L520.117 96.2294L520.88 96.9923L83.403 534.469L82.6402 533.706Z" fill="#1F1F1F"/>
<path fill-rule="evenodd" clip-rule="evenodd" d="M89.3368 533.706L526.814 96.2294L527.577 96.9923L90.0996 534.469L89.3368 533.706Z" fill="#1F1F1F"/>
<path fill-rule="evenodd" clip-rule="evenodd" d="M96.0334 533.706L533.51 96.2294L534.273 96.9923L96.7963 534.469L96.0334 533.706Z" fill="#1F1F1F"/>
<path fill-rule="evenodd" clip-rule="evenodd" d="M102.73 533.706L540.207 96.2294L540.97 96.9923L103.493 534.469L102.73 533.706Z" fill="#1F1F1F"/>
<path fill-rule="evenodd" clip-rule="evenodd" d="M109.427 533.706L546.904 96.2294L547.667 96.9923L110.19 534.469L109.427 533.706Z" fill="#1F1F1F"/>
<path fill-rule="evenodd" clip-rule="evenodd" d="M116.123 533.706L553.6 96.2294L554.363 96.9923L116.886 534.469L116.123 533.706Z" fill="#1F1F1F"/>
<path fill-rule="evenodd" clip-rule="evenodd" d="M122.82 533.706L560.297 96.2294L561.06 96.9923L123.583 534.469L122.82 533.706Z" fill="#1F1F1F"/>
<path fill-rule="evenodd" clip-rule="evenodd" d="M129.517 533.706L566.993 96.2294L567.756 96.9923L130.279 534.469L129.517 533.706Z" fill="#1F1F1F"/>
<path fill-rule="evenodd" clip-rule="evenodd" d="M136.213 533.706L573.69 96.2294L574.453 96.9923L136.976 534.469L136.213 533.706Z" fill="#1F1F1F"/>
<path fill-rule="evenodd" clip-rule="evenodd" d="M142.91 533.706L580.387 96.2294L581.15 96.9923L143.673 534.469L142.91 533.706Z" fill="#1F1F1F"/>
<path fill-rule="evenodd" clip-rule="evenodd" d="M149.606 533.706L587.083 96.2294L587.846 96.9923L150.369 534.469L149.606 533.706Z" fill="#1F1F1F"/>
<path fill-rule="evenodd" clip-rule="evenodd" d="M156.303 533.706L593.78 96.2294L594.543 96.9923L157.066 534.469L156.303 533.706Z" fill="#1F1F1F"/>
<path fill-rule="evenodd" clip-rule="evenodd" d="M163 533.706L600.477 96.2294L601.24 96.9923L163.763 534.469L163 533.706Z" fill="#1F1F1F"/>
<path fill-rule="evenodd" clip-rule="evenodd" d="M169.643 533.706L607.12 96.2294L607.883 96.9923L170.406 534.469L169.643 533.706Z" fill="#1F1F1F"/>
<path fill-rule="evenodd" clip-rule="evenodd" d="M176.34 533.706L613.817 96.2294L614.58 96.9923L177.103 534.469L176.34 533.706Z" fill="#1F1F1F"/>
<path fill-rule="evenodd" clip-rule="evenodd" d="M183.036 533.706L620.513 96.2294L621.276 96.9923L183.799 534.469L183.036 533.706Z" fill="#1F1F1F"/>
<path fill-rule="evenodd" clip-rule="evenodd" d="M189.733 533.706L627.21 96.2294L627.973 96.9923L190.496 534.469L189.733 533.706Z" fill="#1F1F1F"/>
<path fill-rule="evenodd" clip-rule="evenodd" d="M196.43 533.706L633.906 96.2294L634.669 96.9923L197.192 534.469L196.43 533.706Z" fill="#1F1F1F"/>
<path fill-rule="evenodd" clip-rule="evenodd" d="M203.126 533.706L640.603 96.2294L641.366 96.9923L203.889 534.469L203.126 533.706Z" fill="#1F1F1F"/>
<path fill-rule="evenodd" clip-rule="evenodd" d="M209.823 533.706L647.3 96.2294L648.062 96.9923L210.586 534.469L209.823 533.706Z" fill="#1F1F1F"/>
<path fill-rule="evenodd" clip-rule="evenodd" d="M216.519 533.706L653.996 96.2294L654.759 96.9923L217.282 534.469L216.519 533.706Z" fill="#1F1F1F"/>
<path fill-rule="evenodd" clip-rule="evenodd" d="M223.216 533.706L660.693 96.2294L661.456 96.9923L223.979 534.469L223.216 533.706Z" fill="#1F1F1F"/>
<path fill-rule="evenodd" clip-rule="evenodd" d="M229.913 533.706L667.389 96.2294L668.152 96.9923L230.675 534.469L229.913 533.706Z" fill="#1F1F1F"/>
<path fill-rule="evenodd" clip-rule="evenodd" d="M236.609 533.706L674.086 96.2294L674.849 96.9923L237.372 534.469L236.609 533.706Z" fill="#1F1F1F"/>
<path fill-rule="evenodd" clip-rule="evenodd" d="M243.306 533.706L680.783 96.2294L681.545 96.9923L244.069 534.469L243.306 533.706Z" fill="#1F1F1F"/>
<path fill-rule="evenodd" clip-rule="evenodd" d="M250.002 533.706L687.479 96.2294L688.242 96.9923L250.765 534.469L250.002 533.706Z" fill="#1F1F1F"/>
<path fill-rule="evenodd" clip-rule="evenodd" d="M256.699 533.706L694.176 96.2294L694.939 96.9923L257.462 534.469L256.699 533.706Z" fill="#1F1F1F"/>
<path fill-rule="evenodd" clip-rule="evenodd" d="M263.396 533.706L700.872 96.2294L701.635 96.9923L264.158 534.469L263.396 533.706Z" fill="#1F1F1F"/>
<path fill-rule="evenodd" clip-rule="evenodd" d="M270.092 533.706L707.569 96.2294L708.332 96.9923L270.855 534.469L270.092 533.706Z" fill="#1F1F1F"/>
<path fill-rule="evenodd" clip-rule="evenodd" d="M276.789 533.706L714.266 96.2294L715.029 96.9923L277.552 534.469L276.789 533.706Z" fill="#1F1F1F"/>
<path fill-rule="evenodd" clip-rule="evenodd" d="M283.485 533.706L720.962 96.2294L721.725 96.9923L284.248 534.469L283.485 533.706Z" fill="#1F1F1F"/>
<path fill-rule="evenodd" clip-rule="evenodd" d="M290.182 533.706L727.659 96.2294L728.422 96.9923L290.945 534.469L290.182 533.706Z" fill="#1F1F1F"/>
<path fill-rule="evenodd" clip-rule="evenodd" d="M296.879 533.706L734.355 96.2294L735.118 96.9923L297.641 534.469L296.879 533.706Z" fill="#1F1F1F"/>
<path fill-rule="evenodd" clip-rule="evenodd" d="M303.575 533.706L741.052 96.2294L741.815 96.9923L304.338 534.469L303.575 533.706Z" fill="#1F1F1F"/>
<path fill-rule="evenodd" clip-rule="evenodd" d="M310.272 533.706L747.749 96.2294L748.512 96.9923L311.035 534.469L310.272 533.706Z" fill="#1F1F1F"/>
<path fill-rule="evenodd" clip-rule="evenodd" d="M316.968 533.706L754.445 96.2294L755.208 96.9923L317.731 534.469L316.968 533.706Z" fill="#1F1F1F"/>
<path fill-rule="evenodd" clip-rule="evenodd" d="M323.665 533.706L761.142 96.2294L761.905 96.9923L324.428 534.469L323.665 533.706Z" fill="#1F1F1F"/>
<path fill-rule="evenodd" clip-rule="evenodd" d="M330.362 533.706L767.838 96.2294L768.601 96.9923L331.124 534.469L330.362 533.706Z" fill="#1F1F1F"/>
<path fill-rule="evenodd" clip-rule="evenodd" d="M337.058 533.706L774.535 96.2294L775.298 96.9923L337.821 534.469L337.058 533.706Z" fill="#1F1F1F"/>
<path fill-rule="evenodd" clip-rule="evenodd" d="M343.755 533.706L781.232 96.2294L781.994 96.9923L344.518 534.469L343.755 533.706Z" fill="#1F1F1F"/>
<path fill-rule="evenodd" clip-rule="evenodd" d="M350.451 533.706L787.928 96.2294L788.691 96.9923L351.214 534.469L350.451 533.706Z" fill="#1F1F1F"/>
<path fill-rule="evenodd" clip-rule="evenodd" d="M357.148 533.706L794.625 96.2294L795.388 96.9923L357.911 534.469L357.148 533.706Z" fill="#1F1F1F"/>
<path fill-rule="evenodd" clip-rule="evenodd" d="M363.845 533.706L801.322 96.2294L802.084 96.9923L364.607 534.469L363.845 533.706Z" fill="#1F1F1F"/>
<path fill-rule="evenodd" clip-rule="evenodd" d="M370.541 533.706L808.018 96.2294L808.781 96.9923L371.304 534.469L370.541 533.706Z" fill="#1F1F1F"/>
<path fill-rule="evenodd" clip-rule="evenodd" d="M377.238 533.706L814.715 96.2294L815.478 96.9923L378.001 534.469L377.238 533.706Z" fill="#1F1F1F"/>
<path fill-rule="evenodd" clip-rule="evenodd" d="M383.934 533.706L821.411 96.2294L822.174 96.9923L384.697 534.469L383.934 533.706Z" fill="#1F1F1F"/>
<path fill-rule="evenodd" clip-rule="evenodd" d="M390.631 533.706L828.108 96.2294L828.871 96.9923L391.394 534.469L390.631 533.706Z" fill="#1F1F1F"/>
<path fill-rule="evenodd" clip-rule="evenodd" d="M397.328 533.706L834.805 96.2294L835.567 96.9923L398.09 534.469L397.328 533.706Z" fill="#1F1F1F"/>
<path fill-rule="evenodd" clip-rule="evenodd" d="M404.024 533.706L841.501 96.2294L842.264 96.9923L404.787 534.469L404.024 533.706Z" fill="#1F1F1F"/>
<path fill-rule="evenodd" clip-rule="evenodd" d="M410.721 533.706L848.198 96.2294L848.961 96.9923L411.484 534.469L410.721 533.706Z" fill="#1F1F1F"/>
<path fill-rule="evenodd" clip-rule="evenodd" d="M417.417 533.706L854.894 96.2294L855.657 96.9923L418.18 534.469L417.417 533.706Z" fill="#1F1F1F"/>
<path fill-rule="evenodd" clip-rule="evenodd" d="M424.114 533.706L861.591 96.2294L862.354 96.9923L424.877 534.469L424.114 533.706Z" fill="#1F1F1F"/>
<path fill-rule="evenodd" clip-rule="evenodd" d="M430.811 533.706L868.287 96.2294L869.05 96.9923L431.573 534.469L430.811 533.706Z" fill="#1F1F1F"/>
<path fill-rule="evenodd" clip-rule="evenodd" d="M437.507 533.706L874.984 96.2294L875.747 96.9923L438.27 534.469L437.507 533.706Z" fill="#1F1F1F"/>
<path fill-rule="evenodd" clip-rule="evenodd" d="M444.204 533.706L881.681 96.2294L882.444 96.9923L444.967 534.469L444.204 533.706Z" fill="#1F1F1F"/>
<path fill-rule="evenodd" clip-rule="evenodd" d="M450.901 533.706L888.377 96.2294L889.14 96.9923L451.663 534.469L450.901 533.706Z" fill="#1F1F1F"/>
<path fill-rule="evenodd" clip-rule="evenodd" d="M457.597 533.706L895.074 96.2294L895.837 96.9923L458.36 534.469L457.597 533.706Z" fill="#1F1F1F"/>
<path fill-rule="evenodd" clip-rule="evenodd" d="M464.294 533.706L901.771 96.2294L902.533 96.9923L465.057 534.469L464.294 533.706Z" fill="#1F1F1F"/>
<path fill-rule="evenodd" clip-rule="evenodd" d="M470.99 533.706L908.467 96.2294L909.23 96.9923L471.753 534.469L470.99 533.706Z" fill="#1F1F1F"/>
<path fill-rule="evenodd" clip-rule="evenodd" d="M477.687 533.706L915.164 96.2294L915.927 96.9923L478.45 534.469L477.687 533.706Z" fill="#1F1F1F"/>
<path fill-rule="evenodd" clip-rule="evenodd" d="M484.383 533.706L921.86 96.2294L922.623 96.9923L485.146 534.469L484.383 533.706Z" fill="#1F1F1F"/>
<path fill-rule="evenodd" clip-rule="evenodd" d="M491.08 533.706L928.557 96.2294L929.32 96.9923L491.843 534.469L491.08 533.706Z" fill="#1F1F1F"/>
<path fill-rule="evenodd" clip-rule="evenodd" d="M497.777 533.706L935.254 96.2294L936.016 96.9923L498.54 534.469L497.777 533.706Z" fill="#1F1F1F"/>
<path fill-rule="evenodd" clip-rule="evenodd" d="M504.473 533.706L941.95 96.2294L942.713 96.9923L505.236 534.469L504.473 533.706Z" fill="#1F1F1F"/>
<path fill-rule="evenodd" clip-rule="evenodd" d="M511.17 533.706L948.647 96.2294L949.41 96.9923L511.933 534.469L511.17 533.706Z" fill="#1F1F1F"/>
<path fill-rule="evenodd" clip-rule="evenodd" d="M517.866 533.706L955.343 96.2294L956.106 96.9923L518.629 534.469L517.866 533.706Z" fill="#1F1F1F"/>
<path fill-rule="evenodd" clip-rule="evenodd" d="M524.563 533.706L962.04 96.2294L962.803 96.9923L525.326 534.469L524.563 533.706Z" fill="#1F1F1F"/>
<path fill-rule="evenodd" clip-rule="evenodd" d="M531.26 533.706L968.737 96.2294L969.499 96.9923L532.023 534.469L531.26 533.706Z" fill="#1F1F1F"/>
<path fill-rule="evenodd" clip-rule="evenodd" d="M537.956 533.706L975.433 96.2294L976.196 96.9923L538.719 534.469L537.956 533.706Z" fill="#1F1F1F"/>
<path fill-rule="evenodd" clip-rule="evenodd" d="M544.653 533.706L982.13 96.2294L982.893 96.9923L545.416 534.469L544.653 533.706Z" fill="#1F1F1F"/>
<path fill-rule="evenodd" clip-rule="evenodd" d="M551.35 533.706L988.826 96.2294L989.589 96.9923L552.112 534.469L551.35 533.706Z" fill="#1F1F1F"/>
<path fill-rule="evenodd" clip-rule="evenodd" d="M558.046 533.706L995.523 96.2294L996.286 96.9923L558.809 534.469L558.046 533.706Z" fill="#1F1F1F"/>
<path fill-rule="evenodd" clip-rule="evenodd" d="M564.743 533.706L1002.22 96.2294L1002.98 96.9923L565.506 534.469L564.743 533.706Z" fill="#1F1F1F"/>
<path fill-rule="evenodd" clip-rule="evenodd" d="M571.439 533.706L1008.92 96.2294L1009.68 96.9923L572.202 534.469L571.439 533.706Z" fill="#1F1F1F"/>
<path fill-rule="evenodd" clip-rule="evenodd" d="M578.136 533.706L1015.61 96.2294L1016.38 96.9923L578.899 534.469L578.136 533.706Z" fill="#1F1F1F"/>
<path fill-rule="evenodd" clip-rule="evenodd" d="M584.833 533.706L1022.31 96.2294L1023.07 96.9923L585.595 534.469L584.833 533.706Z" fill="#1F1F1F"/>
<path fill-rule="evenodd" clip-rule="evenodd" d="M591.529 533.706L1029.01 96.2294L1029.77 96.9923L592.292 534.469L591.529 533.706Z" fill="#1F1F1F"/>
<path fill-rule="evenodd" clip-rule="evenodd" d="M598.226 533.706L1035.7 96.2294L1036.47 96.9923L598.989 534.469L598.226 533.706Z" fill="#1F1F1F"/>
<path fill-rule="evenodd" clip-rule="evenodd" d="M604.922 533.706L1042.4 96.2294L1043.16 96.9923L605.685 534.469L604.922 533.706Z" fill="#1F1F1F"/>
<path fill-rule="evenodd" clip-rule="evenodd" d="M611.619 533.706L1049.1 96.2294L1049.86 96.9923L612.382 534.469L611.619 533.706Z" fill="#1F1F1F"/>
<path fill-rule="evenodd" clip-rule="evenodd" d="M618.316 533.706L1055.79 96.2294L1056.56 96.9923L619.078 534.469L618.316 533.706Z" fill="#1F1F1F"/>
<path fill-rule="evenodd" clip-rule="evenodd" d="M625.012 533.706L1062.49 96.2294L1063.25 96.9923L625.775 534.469L625.012 533.706Z" fill="#1F1F1F"/>
<path fill-rule="evenodd" clip-rule="evenodd" d="M631.709 533.706L1069.19 96.2294L1069.95 96.9923L632.472 534.469L631.709 533.706Z" fill="#1F1F1F"/>
<path fill-rule="evenodd" clip-rule="evenodd" d="M638.405 533.706L1075.88 96.2294L1076.65 96.9923L639.168 534.469L638.405 533.706Z" fill="#1F1F1F"/>
<path fill-rule="evenodd" clip-rule="evenodd" d="M645.102 533.706L1082.58 96.2294L1083.34 96.9923L645.865 534.469L645.102 533.706Z" fill="#1F1F1F"/>
<path fill-rule="evenodd" clip-rule="evenodd" d="M651.799 533.706L1089.28 96.2294L1090.04 96.9923L652.561 534.469L651.799 533.706Z" fill="#1F1F1F"/>
<path fill-rule="evenodd" clip-rule="evenodd" d="M658.495 533.706L1095.97 96.2294L1096.73 96.9923L659.258 534.469L658.495 533.706Z" fill="#1F1F1F"/>
<path fill-rule="evenodd" clip-rule="evenodd" d="M665.192 533.706L1102.67 96.2294L1103.43 96.9923L665.955 534.469L665.192 533.706Z" fill="#1F1F1F"/>
<path fill-rule="evenodd" clip-rule="evenodd" d="M671.888 533.706L1109.37 96.2294L1110.13 96.9923L672.651 534.469L671.888 533.706Z" fill="#1F1F1F"/>
<path fill-rule="evenodd" clip-rule="evenodd" d="M678.585 533.706L1116.06 96.2294L1116.82 96.9923L679.348 534.469L678.585 533.706Z" fill="#1F1F1F"/>
<path fill-rule="evenodd" clip-rule="evenodd" d="M685.282 533.706L1122.76 96.2294L1123.52 96.9923L686.044 534.469L685.282 533.706Z" fill="#1F1F1F"/>
<path fill-rule="evenodd" clip-rule="evenodd" d="M691.978 533.706L1129.46 96.2294L1130.22 96.9923L692.741 534.469L691.978 533.706Z" fill="#1F1F1F"/>
<path fill-rule="evenodd" clip-rule="evenodd" d="M698.675 533.706L1136.15 96.2294L1136.91 96.9923L699.438 534.469L698.675 533.706Z" fill="#1F1F1F"/>
<path fill-rule="evenodd" clip-rule="evenodd" d="M705.371 533.706L1142.85 96.2294L1143.61 96.9923L706.134 534.469L705.371 533.706Z" fill="#1F1F1F"/>
<path fill-rule="evenodd" clip-rule="evenodd" d="M712.068 533.706L1149.54 96.2294L1150.31 96.9923L712.831 534.469L712.068 533.706Z" fill="#1F1F1F"/>
<path fill-rule="evenodd" clip-rule="evenodd" d="M718.765 533.706L1156.24 96.2294L1157 96.9923L719.527 534.469L718.765 533.706Z" fill="#1F1F1F"/>
<path fill-rule="evenodd" clip-rule="evenodd" d="M725.461 533.706L1162.94 96.2294L1163.7 96.9923L726.224 534.469L725.461 533.706Z" fill="#1F1F1F"/>
<path fill-rule="evenodd" clip-rule="evenodd" d="M732.158 533.706L1169.63 96.2294L1170.4 96.9923L732.921 534.469L732.158 533.706Z" fill="#1F1F1F"/>
<path fill-rule="evenodd" clip-rule="evenodd" d="M738.854 533.706L1176.33 96.2294L1177.09 96.9923L739.617 534.469L738.854 533.706Z" fill="#1F1F1F"/>
<path fill-rule="evenodd" clip-rule="evenodd" d="M745.551 533.706L1183.03 96.2294L1183.79 96.9923L746.314 534.469L745.551 533.706Z" fill="#1F1F1F"/>
<path fill-rule="evenodd" clip-rule="evenodd" d="M752.248 533.706L1189.72 96.2294L1190.49 96.9923L753.011 534.469L752.248 533.706Z" fill="#1F1F1F"/>
<path fill-rule="evenodd" clip-rule="evenodd" d="M758.944 533.706L1196.42 96.2294L1197.18 96.9923L759.707 534.469L758.944 533.706Z" fill="#1F1F1F"/>
<path fill-rule="evenodd" clip-rule="evenodd" d="M765.641 533.706L1203.12 96.2294L1203.88 96.9923L766.404 534.469L765.641 533.706Z" fill="#1F1F1F"/>
<path fill-rule="evenodd" clip-rule="evenodd" d="M772.338 533.706L1209.81 96.2294L1210.58 96.9923L773.1 534.469L772.338 533.706Z" fill="#1F1F1F"/>
<path fill-rule="evenodd" clip-rule="evenodd" d="M779.034 533.706L1216.51 96.2294L1217.27 96.9923L779.797 534.469L779.034 533.706Z" fill="#1F1F1F"/>
<path fill-rule="evenodd" clip-rule="evenodd" d="M785.731 533.706L1223.21 96.2294L1223.97 96.9923L786.494 534.469L785.731 533.706Z" fill="#1F1F1F"/>
<path fill-rule="evenodd" clip-rule="evenodd" d="M792.427 533.706L1229.9 96.2294L1230.67 96.9923L793.19 534.469L792.427 533.706Z" fill="#1F1F1F"/>
<path fill-rule="evenodd" clip-rule="evenodd" d="M799.124 533.706L1236.6 96.2294L1237.36 96.9923L799.887 534.469L799.124 533.706Z" fill="#1F1F1F"/>
<path fill-rule="evenodd" clip-rule="evenodd" d="M805.821 533.706L1243.3 96.2294L1244.06 96.9923L806.584 534.469L805.821 533.706Z" fill="#1F1F1F"/>
<path fill-rule="evenodd" clip-rule="evenodd" d="M812.517 533.706L1249.99 96.2294L1250.76 96.9923L813.28 534.469L812.517 533.706Z" fill="#1F1F1F"/>
<path fill-rule="evenodd" clip-rule="evenodd" d="M819.214 533.706L1256.69 96.2294L1257.45 96.9923L819.977 534.469L819.214 533.706Z" fill="#1F1F1F"/>
<path fill-rule="evenodd" clip-rule="evenodd" d="M825.911 533.706L1263.39 96.2294L1264.15 96.9923L826.674 534.469L825.911 533.706Z" fill="#1F1F1F"/>
<path fill-rule="evenodd" clip-rule="evenodd" d="M832.607 533.706L1270.08 96.2294L1270.85 96.9923L833.37 534.469L832.607 533.706Z" fill="#1F1F1F"/>
<path fill-rule="evenodd" clip-rule="evenodd" d="M839.304 533.706L1276.78 96.2294L1277.54 96.9923L840.067 534.469L839.304 533.706Z" fill="#1F1F1F"/>
<path fill-rule="evenodd" clip-rule="evenodd" d="M846.001 533.706L1283.48 96.2294L1284.24 96.9923L846.763 534.469L846.001 533.706Z" fill="#1F1F1F"/>
<path fill-rule="evenodd" clip-rule="evenodd" d="M852.697 533.706L1290.17 96.2294L1290.94 96.9923L853.46 534.469L852.697 533.706Z" fill="#1F1F1F"/>
<path fill-rule="evenodd" clip-rule="evenodd" d="M859.394 533.706L1296.87 96.2294L1297.63 96.9923L860.157 534.469L859.394 533.706Z" fill="#1F1F1F"/>
<path fill-rule="evenodd" clip-rule="evenodd" d="M866.09 533.706L1303.57 96.2294L1304.33 96.9923L866.853 534.469L866.09 533.706Z" fill="#1F1F1F"/>
<path fill-rule="evenodd" clip-rule="evenodd" d="M872.787 533.706L1310.26 96.2294L1311.03 96.9923L873.55 534.469L872.787 533.706Z" fill="#1F1F1F"/>
<path fill-rule="evenodd" clip-rule="evenodd" d="M879.484 533.706L1316.96 96.2294L1317.72 96.9923L880.247 534.469L879.484 533.706Z" fill="#1F1F1F"/>
<path fill-rule="evenodd" clip-rule="evenodd" d="M886.18 533.706L1323.66 96.2294L1324.42 96.9923L886.943 534.469L886.18 533.706Z" fill="#1F1F1F"/>
<path fill-rule="evenodd" clip-rule="evenodd" d="M892.877 533.706L1330.35 96.2294L1331.12 96.9923L893.64 534.469L892.877 533.706Z" fill="#1F1F1F"/>
<path fill-rule="evenodd" clip-rule="evenodd" d="M899.574 533.706L1337.05 96.2294L1337.81 96.9923L900.337 534.469L899.574 533.706Z" fill="#1F1F1F"/>
<path fill-rule="evenodd" clip-rule="evenodd" d="M906.27 533.706L1343.75 96.2294L1344.51 96.9923L907.033 534.469L906.27 533.706Z" fill="#1F1F1F"/>
<path fill-rule="evenodd" clip-rule="evenodd" d="M912.967 533.706L1350.44 96.2294L1351.21 96.9923L913.73 534.469L912.967 533.706Z" fill="#1F1F1F"/>
<path fill-rule="evenodd" clip-rule="evenodd" d="M919.664 533.706L1357.14 96.2294L1357.9 96.9923L920.426 534.469L919.664 533.706Z" fill="#1F1F1F"/>
<path fill-rule="evenodd" clip-rule="evenodd" d="M926.36 533.706L1363.84 96.2294L1364.6 96.9923L927.123 534.469L926.36 533.706Z" fill="#1F1F1F"/>
<path fill-rule="evenodd" clip-rule="evenodd" d="M933.057 533.706L1370.53 96.2294L1371.3 96.9923L933.82 534.469L933.057 533.706Z" fill="#1F1F1F"/>
<path fill-rule="evenodd" clip-rule="evenodd" d="M939.753 533.706L1377.23 96.2294L1377.99 96.9923L940.516 534.469L939.753 533.706Z" fill="#1F1F1F"/>
<path fill-rule="evenodd" clip-rule="evenodd" d="M946.45 533.706L1383.93 96.2294L1384.69 96.9923L947.213 534.469L946.45 533.706Z" fill="#1F1F1F"/>
<path fill-rule="evenodd" clip-rule="evenodd" d="M953.147 533.706L1390.62 96.2294L1391.39 96.9923L953.91 534.469L953.147 533.706Z" fill="#1F1F1F"/>
</g>
</g>
<rect x="29.0329" y="180.546" width="713.453" height="269.574" rx="3.53195" stroke="#303030" stroke-width="1.00913"/>
<path d="M306.217 28.7089V21.645H308.598C309.728 21.645 310.546 22.4018 310.546 23.4513C310.546 24.1476 310.182 24.7127 309.607 24.9953V25.0356C310.324 25.298 310.768 25.9338 310.768 26.7612C310.768 27.8915 309.91 28.7089 308.729 28.7089H306.217ZM307.095 24.6522H308.639C309.254 24.6522 309.678 24.1779 309.678 23.5219C309.678 22.866 309.264 22.4321 308.639 22.4321H307.095V24.6522ZM307.095 27.9217H308.76C309.426 27.9217 309.88 27.4172 309.88 26.6805C309.88 25.9439 309.426 25.4393 308.76 25.4393H307.095V27.9217ZM314.286 24.7934H316.011C316.677 24.7934 317.121 24.3192 317.121 23.6128C317.121 22.9064 316.677 22.4321 316.011 22.4321H314.286V24.7934ZM313.408 28.7089V21.645H315.961C317.142 21.645 317.969 22.4523 317.969 23.6128C317.969 24.5714 317.404 25.2879 316.536 25.5099L318.171 28.7089H317.212L315.608 25.5806H314.286V28.7089H313.408ZM322.173 28.8098C320.609 28.8098 319.509 27.3163 319.509 25.1769C319.509 23.0376 320.609 21.5441 322.173 21.5441C323.737 21.5441 324.837 23.0376 324.837 25.1769C324.837 27.3163 323.737 28.8098 322.173 28.8098ZM322.173 28.0025C323.253 28.0025 323.959 26.8924 323.959 25.1769C323.959 23.4614 323.253 22.3514 322.173 22.3514C321.093 22.3514 320.387 23.4614 320.387 25.1769C320.387 26.8924 321.093 28.0025 322.173 28.0025ZM326.892 28.7089L326.145 21.645H326.952L327.528 27.5585H327.568L328.84 22.7146H329.586L330.858 27.5585H330.898L331.483 21.645H332.281L331.534 28.7089H330.454L329.233 24.0467H329.193L327.972 28.7089H326.892ZM333.821 26.9126H334.648C334.719 27.5887 335.355 28.063 336.202 28.063C337.09 28.063 337.696 27.5484 337.696 26.7915C337.696 26.1457 337.252 25.7521 336.354 25.5604L335.94 25.4797C334.668 25.2274 334.012 24.5815 334.012 23.5522C334.012 22.3614 334.9 21.5441 336.192 21.5441C337.443 21.5441 338.412 22.311 338.473 23.3403H337.645C337.565 22.7449 336.969 22.3211 336.212 22.3211C335.405 22.3211 334.87 22.7954 334.87 23.5018C334.87 24.1072 335.274 24.4907 336.061 24.6522L336.475 24.7329C337.857 25.0155 338.564 25.6815 338.564 26.7512C338.564 27.9924 337.605 28.8501 336.222 28.8501C334.87 28.8501 333.861 28.0327 333.821 26.9126ZM341.042 28.7089V21.645H345.24V22.4321H341.92V24.6522H344.796V25.4393H341.92V27.9217H345.24V28.7089H341.042ZM348.879 24.7934H350.605C351.271 24.7934 351.715 24.3192 351.715 23.6128C351.715 22.9064 351.271 22.4321 350.605 22.4321H348.879V24.7934ZM348.001 28.7089V21.645H350.554C351.735 21.645 352.562 22.4523 352.562 23.6128C352.562 24.5714 351.997 25.2879 351.129 25.5099L352.764 28.7089H351.806L350.201 25.5806H348.879V28.7089H348.001ZM361.061 30.0207L365.108 20.3331H365.956L361.909 30.0207H361.061ZM378.683 27.4273V21.645H379.5V28.7089H378.37L375.555 22.5532H375.514V28.7089H374.697V21.645H375.989L378.643 27.4273H378.683ZM382.312 28.7089H381.454L383.604 21.645H384.794L386.944 28.7089H386.066L385.46 26.7209H382.917L382.312 28.7089ZM383.15 25.9439H385.228L384.209 22.5734H384.169L383.15 25.9439ZM390.684 28.7089V22.4321H388.554V21.645H393.681V22.4321H391.562V28.7089H390.684ZM395.756 28.7089V27.9217H397.36V22.4321H395.776V21.645H399.812V22.4321H398.238V27.9217H399.833V28.7089H395.756ZM403.795 28.7089L401.615 21.645H402.513L404.37 27.73H404.41L406.267 21.645H407.145L404.965 28.7089H403.795ZM409.805 28.7089V21.645H414.003V22.4321H410.683V24.6522H413.559V25.4393H410.683V27.9217H414.003V28.7089H409.805ZM426.902 26.9126H427.739C427.588 28.0227 426.65 28.8098 425.489 28.8098C423.885 28.8098 422.785 27.3264 422.785 25.1769C422.785 23.0174 423.885 21.5441 425.469 21.5441C426.599 21.5441 427.507 22.2908 427.679 23.3403H426.831C426.69 22.7449 426.155 22.3514 425.499 22.3514C424.389 22.3514 423.673 23.4715 423.673 25.187C423.673 26.9025 424.389 28.0025 425.509 28.0025C426.206 28.0025 426.761 27.5685 426.902 26.9126ZM430.611 28.7089V21.645H431.489V27.9217H434.709V28.7089H430.611ZM436.602 28.7089V27.9217H438.206V22.4321H436.622V21.645H440.658V22.4321H439.084V27.9217H440.679V28.7089H436.602ZM443.611 28.7089V21.645H447.809V22.4321H444.489V24.6522H447.365V25.4393H444.489V27.9217H447.809V28.7089H443.611ZM454.365 27.4273V21.645H455.182V28.7089H454.052L451.236 22.5532H451.196V28.7089H450.379V21.645H451.67L454.324 27.4273H454.365ZM459.083 28.7089V22.4321H456.954V21.645H462.08V22.4321H459.961V28.7089H459.083ZM464.125 26.9126H464.953C465.023 27.5887 465.659 28.063 466.507 28.063C467.395 28.063 468 27.5484 468 26.7915C468 26.1457 467.556 25.7521 466.658 25.5604L466.244 25.4797C464.973 25.2274 464.317 24.5815 464.317 23.5522C464.317 22.3614 465.205 21.5441 466.497 21.5441C467.748 21.5441 468.717 22.311 468.777 23.3403H467.95C467.869 22.7449 467.274 22.3211 466.517 22.3211C465.709 22.3211 465.175 22.7954 465.175 23.5018C465.175 24.1072 465.578 24.4907 466.365 24.6522L466.779 24.7329C468.162 25.0155 468.868 25.6815 468.868 26.7512C468.868 27.9924 467.909 28.8501 466.527 28.8501C465.175 28.8501 464.165 28.0327 464.125 26.9126Z" fill="#FDFDFC"/>
<rect x="279.528" y="40.7819" width="215.953" height="92.9767" rx="8.07302" fill="#070707"/>
<rect x="279.528" y="40.7819" width="215.953" height="92.9767" rx="8.07302" stroke="#003445" stroke-width="1.00913" stroke-linecap="round"/>
<path d="M121.709 224.207V218.425H122.526V225.489H121.396L118.58 219.333H118.54V225.489H117.723V218.425H119.014L121.668 224.207H121.709ZM127.255 225.59C125.691 225.59 124.591 224.096 124.591 221.957C124.591 219.817 125.691 218.324 127.255 218.324C128.819 218.324 129.919 219.817 129.919 221.957C129.919 224.096 128.819 225.59 127.255 225.59ZM127.255 224.782C128.335 224.782 129.041 223.672 129.041 221.957C129.041 220.241 128.335 219.131 127.255 219.131C126.175 219.131 125.469 220.241 125.469 221.957C125.469 223.672 126.175 224.782 127.255 224.782ZM131.893 225.489V218.425H133.901C135.607 218.425 136.767 219.858 136.767 221.957C136.767 224.056 135.607 225.489 133.901 225.489H131.893ZM132.771 224.702H133.901C135.102 224.702 135.879 223.632 135.879 221.957C135.879 220.282 135.102 219.212 133.901 219.212H132.771V224.702ZM139.387 225.489V218.425H143.585V219.212H140.265V221.432H143.141V222.219H140.265V224.702H143.585V225.489H139.387Z" fill="#FDFDFC"/>
<rect x="52.4746" y="237.562" width="156.415" height="151.506" rx="8.07302" fill="#070707"/>
<rect x="52.4746" y="237.562" width="156.415" height="151.506" rx="8.07302" stroke="#003445" stroke-width="1.00913" stroke-linecap="round"/>
<path d="M293.26 224.207V218.425H294.078V225.489H292.948L290.132 219.333H290.092V225.489H289.274V218.425H290.566L293.22 224.207H293.26ZM298.807 225.59C297.243 225.59 296.143 224.096 296.143 221.957C296.143 219.817 297.243 218.324 298.807 218.324C300.371 218.324 301.471 219.817 301.471 221.957C301.471 224.096 300.371 225.59 298.807 225.59ZM298.807 224.782C299.886 224.782 300.593 223.672 300.593 221.957C300.593 220.241 299.886 219.131 298.807 219.131C297.727 219.131 297.021 220.241 297.021 221.957C297.021 223.672 297.727 224.782 298.807 224.782ZM303.445 225.489V218.425H305.453C307.158 218.425 308.319 219.858 308.319 221.957C308.319 224.056 307.158 225.489 305.453 225.489H303.445ZM304.323 224.702H305.453C306.654 224.702 307.431 223.632 307.431 221.957C307.431 220.282 306.654 219.212 305.453 219.212H304.323V224.702ZM310.939 225.489V218.425H315.137V219.212H311.817V221.432H314.693V222.219H311.817V224.702H315.137V225.489H310.939Z" fill="#FDFDFC"/>
<rect x="224.026" y="237.562" width="156.415" height="151.506" rx="8.07302" fill="#070707"/>
<rect x="224.026" y="237.562" width="156.415" height="151.506" rx="8.07302" stroke="#003445" stroke-width="1.00913" stroke-linecap="round"/>
<path d="M307.399 70.1498C307.399 65.7098 310.999 62.1105 315.439 62.1105H456.784C461.224 62.1105 464.823 65.7098 464.823 70.1498V98.4728C464.823 102.913 461.224 106.512 456.784 106.512H315.439C310.999 106.512 307.399 102.913 307.399 98.4728V70.1498Z" fill="#001114"/>
<path d="M307.399 70.1498C307.399 65.7098 310.999 62.1105 315.439 62.1105H456.784C461.224 62.1105 464.823 65.7098 464.823 70.1498V98.4728C464.823 102.913 461.224 106.512 456.784 106.512H315.439C310.999 106.512 307.399 102.913 307.399 98.4728V70.1498Z" stroke="#035C6D" stroke-width="1.00913" stroke-linecap="round"/>
<path d="M350.047 87.8113V80.7474H350.925V87.0242H354.144V87.8113H350.047ZM356.461 87.8113V87.0242H358.065V81.5345H356.481V80.7474H360.517V81.5345H358.943V87.0242H360.538V87.8113H356.461ZM364.681 87.8113L362.502 80.7474H363.4L365.256 86.8324H365.297L367.154 80.7474H368.032L365.852 87.8113H364.681ZM370.328 87.8113V80.7474H374.526V81.5345H371.206V83.7546H374.082V84.5417H371.206V87.0242H374.526V87.8113H370.328ZM378.135 80.7474V84.3298L381.314 80.7474H382.394L379.78 83.7142L382.525 87.8113H381.506L379.195 84.3802L378.135 85.571V87.8113H377.257V80.7474H378.135ZM384.257 87.8113V87.0242H385.861V81.5345H384.277V80.7474H388.313V81.5345H386.739V87.0242H388.333V87.8113H384.257ZM392.538 87.8113V81.5345H390.408V80.7474H395.535V81.5345H393.416V87.8113H392.538ZM404.024 86.015H404.851C404.922 86.6911 405.558 87.1654 406.405 87.1654C407.293 87.1654 407.899 86.6508 407.899 85.8939C407.899 85.2481 407.455 84.8545 406.557 84.6628L406.143 84.5821C404.871 84.3298 404.215 83.6839 404.215 82.6546C404.215 81.4639 405.103 80.6465 406.395 80.6465C407.646 80.6465 408.615 81.4134 408.676 82.4427H407.848C407.768 81.8473 407.172 81.4235 406.415 81.4235C405.608 81.4235 405.073 81.8978 405.073 82.6042C405.073 83.2097 405.477 83.5931 406.264 83.7546L406.678 83.8353C408.06 84.1179 408.767 84.7839 408.767 85.8536C408.767 87.0948 407.808 87.9526 406.425 87.9526C405.073 87.9526 404.064 87.1352 404.024 86.015ZM411.326 87.8113V80.7474H413.334C415.039 80.7474 416.2 82.1803 416.2 84.2793C416.2 86.3783 415.039 87.8113 413.334 87.8113H411.326ZM412.204 87.0242H413.334C414.535 87.0242 415.312 85.9545 415.312 84.2793C415.312 82.6042 414.535 81.5345 413.334 81.5345H412.204V87.0242ZM419.284 80.7474V84.3298L422.463 80.7474H423.542L420.929 83.7142L423.674 87.8113H422.654L420.343 84.3802L419.284 85.571V87.8113H418.406V80.7474H419.284Z" fill="#FDFDFC"/>
<path d="M66.2969 287.209C66.2969 282.769 69.8962 279.17 74.3362 279.17H183.389C187.829 279.17 191.429 282.769 191.429 287.209V335.715C191.429 340.155 187.829 343.754 183.389 343.754H74.3362C69.8962 343.754 66.2969 340.155 66.2969 335.715V287.209Z" fill="#001114"/>
<path d="M66.2969 287.209C66.2969 282.769 69.8962 279.17 74.3362 279.17H183.389C187.829 279.17 191.429 282.769 191.429 287.209V335.715C191.429 340.155 187.829 343.754 183.389 343.754H74.3362C69.8962 343.754 66.2969 340.155 66.2969 335.715V287.209Z" stroke="#035C6D" stroke-width="1.00913" stroke-linecap="round"/>
<path d="M106.514 307.462V300.398H107.392V306.675H110.611V307.462H106.514ZM112.928 307.462V306.675H114.533V301.185H112.949V300.398H116.985V301.185H115.411V306.675H117.005V307.462H112.928ZM121.149 307.462L118.969 300.398H119.867L121.724 306.483H121.764L123.621 300.398H124.499L122.32 307.462H121.149ZM126.796 307.462V300.398H130.994V301.185H127.674V303.405H130.55V304.193H127.674V306.675H130.994V307.462H126.796ZM134.603 300.398V303.981L137.782 300.398H138.861L136.248 303.365L138.993 307.462H137.973L135.662 304.031L134.603 305.222V307.462H133.725V300.398H134.603ZM140.724 307.462V306.675H142.329V301.185H140.744V300.398H144.781V301.185H143.207V306.675H144.801V307.462H140.724ZM149.005 307.462V301.185H146.876V300.398H152.002V301.185H149.883V307.462H149.005ZM95.3391 320.666H96.1666C96.2373 321.342 96.873 321.816 97.7207 321.816C98.6087 321.816 99.2142 321.302 99.2142 320.545C99.2142 319.899 98.7702 319.505 97.872 319.314L97.4583 319.233C96.1868 318.981 95.5309 318.335 95.5309 317.306C95.5309 316.115 96.4189 315.297 97.7106 315.297C98.9619 315.297 99.9307 316.064 99.9912 317.094H99.1637C99.083 316.498 98.4876 316.074 97.7308 316.074C96.9235 316.074 96.3886 316.549 96.3886 317.255C96.3886 317.861 96.7923 318.244 97.5794 318.405L97.9931 318.486C99.3756 318.769 100.082 319.435 100.082 320.504C100.082 321.746 99.1234 322.603 97.7409 322.603C96.3886 322.603 95.3795 321.786 95.3391 320.666ZM102.974 322.462V315.398H107.172V316.185H103.852V318.405H106.728V319.193H103.852V321.675H107.172V322.462H102.974ZM110.69 318.547H112.416C113.082 318.547 113.526 318.072 113.526 317.366C113.526 316.66 113.082 316.185 112.416 316.185H110.69V318.547ZM109.812 322.462V315.398H112.365C113.546 315.398 114.373 316.206 114.373 317.366C114.373 318.325 113.808 319.041 112.941 319.263L114.575 322.462H113.617L112.012 319.334H110.69V322.462H109.812ZM117.992 322.462L115.813 315.398H116.711L118.568 321.483H118.608L120.465 315.398H121.343L119.163 322.462H117.992ZM123.367 322.462V315.398H127.565V316.185H124.245V318.405H127.121V319.193H124.245V321.675H127.565V322.462H123.367ZM131.386 318.547H133.111C133.777 318.547 134.221 318.072 134.221 317.366C134.221 316.66 133.777 316.185 133.111 316.185H131.386V318.547ZM130.508 322.462V315.398H133.061C134.241 315.398 135.069 316.206 135.069 317.366C135.069 318.325 134.504 319.041 133.636 319.263L135.271 322.462H134.312L132.708 319.334H131.386V322.462H130.508ZM143.639 322.462V315.398H146.222C147.433 315.398 148.281 316.246 148.281 317.437C148.281 318.627 147.433 319.475 146.222 319.475H144.517V322.462H143.639ZM144.517 318.688H146.272C146.969 318.688 147.433 318.183 147.433 317.437C147.433 316.68 146.969 316.185 146.272 316.185H144.517V318.688ZM152.687 322.563C151.122 322.563 150.023 321.07 150.023 318.93C150.023 316.791 151.122 315.297 152.687 315.297C154.251 315.297 155.351 316.791 155.351 318.93C155.351 321.07 154.251 322.563 152.687 322.563ZM152.687 321.756C153.766 321.756 154.473 320.646 154.473 318.93C154.473 317.215 153.766 316.105 152.687 316.105C151.607 316.105 150.9 317.215 150.9 318.93C150.9 320.646 151.607 321.756 152.687 321.756ZM157.809 322.462V315.398H159.817C161.523 315.398 162.683 316.831 162.683 318.93C162.683 321.029 161.523 322.462 159.817 322.462H157.809ZM158.687 321.675H159.817C161.018 321.675 161.795 320.605 161.795 318.93C161.795 317.255 161.018 316.185 159.817 316.185H158.687V321.675Z" fill="#FDFDFC"/>
<path d="M237.849 287.209C237.849 282.769 241.448 279.17 245.888 279.17H354.941C359.381 279.17 362.98 282.769 362.98 287.209V335.715C362.98 340.155 359.381 343.754 354.941 343.754H245.888C241.448 343.754 237.849 340.155 237.849 335.715V287.209Z" fill="#001114"/>
<path d="M237.849 287.209C237.849 282.769 241.448 279.17 245.888 279.17H354.941C359.381 279.17 362.98 282.769 362.98 287.209V335.715C362.98 340.155 359.381 343.754 354.941 343.754H245.888C241.448 343.754 237.849 340.155 237.849 335.715V287.209Z" stroke="#035C6D" stroke-width="1.00913" stroke-linecap="round"/>
<path d="M278.066 307.462V300.398H278.944V306.675H282.163V307.462H278.066ZM284.48 307.462V306.675H286.085V301.185H284.5V300.398H288.537V301.185H286.963V306.675H288.557V307.462H284.48ZM292.701 307.462L290.521 300.398H291.419L293.276 306.483H293.316L295.173 300.398H296.051L293.871 307.462H292.701ZM298.348 307.462V300.398H302.546V301.185H299.226V303.405H302.102V304.193H299.226V306.675H302.546V307.462H298.348ZM306.155 300.398V303.981L309.333 300.398H310.413L307.799 303.365L310.544 307.462H309.525L307.214 304.031L306.155 305.222V307.462H305.277V300.398H306.155ZM312.276 307.462V306.675H313.881V301.185H312.296V300.398H316.333V301.185H314.758V306.675H316.353V307.462H312.276ZM320.557 307.462V301.185H318.428V300.398H323.554V301.185H321.435V307.462H320.557ZM266.891 320.666H267.718C267.789 321.342 268.425 321.816 269.272 321.816C270.16 321.816 270.766 321.302 270.766 320.545C270.766 319.899 270.322 319.505 269.424 319.314L269.01 319.233C267.739 318.981 267.083 318.335 267.083 317.306C267.083 316.115 267.971 315.297 269.262 315.297C270.514 315.297 271.482 316.064 271.543 317.094H270.715C270.635 316.498 270.039 316.074 269.283 316.074C268.475 316.074 267.94 316.549 267.94 317.255C267.94 317.861 268.344 318.244 269.131 318.405L269.545 318.486C270.927 318.769 271.634 319.435 271.634 320.504C271.634 321.746 270.675 322.603 269.293 322.603C267.94 322.603 266.931 321.786 266.891 320.666ZM274.526 322.462V315.398H278.724V316.185H275.404V318.405H278.28V319.193H275.404V321.675H278.724V322.462H274.526ZM282.242 318.547H283.968C284.634 318.547 285.078 318.072 285.078 317.366C285.078 316.66 284.634 316.185 283.968 316.185H282.242V318.547ZM281.364 322.462V315.398H283.917C285.098 315.398 285.925 316.206 285.925 317.366C285.925 318.325 285.36 319.041 284.492 319.263L286.127 322.462H285.168L283.564 319.334H282.242V322.462H281.364ZM289.544 322.462L287.364 315.398H288.262L290.119 321.483H290.16L292.016 315.398H292.894L290.715 322.462H289.544ZM294.919 322.462V315.398H299.117V316.185H295.797V318.405H298.673V319.193H295.797V321.675H299.117V322.462H294.919ZM302.937 318.547H304.663C305.329 318.547 305.773 318.072 305.773 317.366C305.773 316.66 305.329 316.185 304.663 316.185H302.937V318.547ZM302.059 322.462V315.398H304.613C305.793 315.398 306.621 316.206 306.621 317.366C306.621 318.325 306.056 319.041 305.188 319.263L306.823 322.462H305.864L304.259 319.334H302.937V322.462H302.059ZM315.19 322.462V315.398H317.774C318.985 315.398 319.832 316.246 319.832 317.437C319.832 318.627 318.985 319.475 317.774 319.475H316.068V322.462H315.19ZM316.068 318.688H317.824C318.521 318.688 318.985 318.183 318.985 317.437C318.985 316.68 318.521 316.185 317.824 316.185H316.068V318.688ZM324.238 322.563C322.674 322.563 321.574 321.07 321.574 318.93C321.574 316.791 322.674 315.297 324.238 315.297C325.803 315.297 326.902 316.791 326.902 318.93C326.902 321.07 325.803 322.563 324.238 322.563ZM324.238 321.756C325.318 321.756 326.025 320.646 326.025 318.93C326.025 317.215 325.318 316.105 324.238 316.105C323.159 316.105 322.452 317.215 322.452 318.93C322.452 320.646 323.159 321.756 324.238 321.756ZM329.361 322.462V315.398H331.369C333.074 315.398 334.235 316.831 334.235 318.93C334.235 321.029 333.074 322.462 331.369 322.462H329.361ZM330.239 321.675H331.369C332.57 321.675 333.347 320.605 333.347 318.93C333.347 317.255 332.57 316.185 331.369 316.185H330.239V321.675Z" fill="#FDFDFC"/>
<path d="M527.389 245.738C527.389 241.298 530.988 237.699 535.428 237.699H676.774C681.214 237.699 684.813 241.298 684.813 245.738V294.244C684.813 298.684 681.214 302.283 676.774 302.283H535.428C530.988 302.283 527.389 298.684 527.389 294.244V245.738Z" fill="#001114"/>
<path d="M527.389 245.738C527.389 241.298 530.988 237.699 535.428 237.699H676.774C681.214 237.699 684.813 241.298 684.813 245.738V294.244C684.813 298.684 681.214 302.283 676.774 302.283H535.428C530.988 302.283 527.389 298.684 527.389 294.244V245.738Z" stroke="#035C6D" stroke-width="1.00913" stroke-linecap="round"/>
<path d="M583.188 273.491V272.704H584.792V267.214H583.208V266.427H587.244V267.214H585.67V272.704H587.264V273.491H583.188ZM593.699 272.209V266.427H594.516V273.491H593.386L590.57 267.335H590.53V273.491H589.713V266.427H591.004L593.658 272.209H593.699ZM599.215 270.473V269.686H601.647V273.491H600.85V272.421H600.819C600.456 273.148 599.83 273.592 599.063 273.592C597.661 273.592 596.641 272.098 596.641 269.999C596.641 267.819 597.741 266.326 599.346 266.326C600.486 266.326 601.415 267.073 601.596 268.122H600.739C600.587 267.527 600.042 267.133 599.376 267.133C598.246 267.133 597.519 268.243 597.519 269.979C597.519 271.664 598.206 272.805 599.215 272.805C600.143 272.805 600.799 271.846 600.799 270.473H599.215ZM604.892 269.575H606.618C607.284 269.575 607.728 269.101 607.728 268.395C607.728 267.688 607.284 267.214 606.618 267.214H604.892V269.575ZM604.014 273.491V266.427H606.567C607.748 266.427 608.576 267.234 608.576 268.395C608.576 269.353 608.01 270.07 607.143 270.292L608.777 273.491H607.819L606.214 270.362H604.892V273.491H604.014ZM611.074 273.491V266.427H615.272V267.214H611.952V269.434H614.828V270.221H611.952V272.704H615.272V273.491H611.074ZM617.448 271.695H618.275C618.346 272.371 618.982 272.845 619.829 272.845C620.718 272.845 621.323 272.33 621.323 271.573C621.323 270.928 620.879 270.534 619.981 270.342L619.567 270.262C618.296 270.009 617.64 269.363 617.64 268.334C617.64 267.143 618.528 266.326 619.819 266.326C621.071 266.326 622.039 267.093 622.1 268.122H621.273C621.192 267.527 620.596 267.103 619.84 267.103C619.032 267.103 618.497 267.577 618.497 268.284C618.497 268.889 618.901 269.273 619.688 269.434L620.102 269.515C621.484 269.797 622.191 270.463 622.191 271.533C622.191 272.774 621.232 273.632 619.85 273.632C618.497 273.632 617.488 272.815 617.448 271.695ZM624.609 271.695H625.436C625.507 272.371 626.143 272.845 626.99 272.845C627.878 272.845 628.484 272.33 628.484 271.573C628.484 270.928 628.04 270.534 627.142 270.342L626.728 270.262C625.456 270.009 624.801 269.363 624.801 268.334C624.801 267.143 625.689 266.326 626.98 266.326C628.232 266.326 629.2 267.093 629.261 268.122H628.433C628.353 267.527 627.757 267.103 627 267.103C626.193 267.103 625.658 267.577 625.658 268.284C625.658 268.889 626.062 269.273 626.849 269.434L627.263 269.515C628.645 269.797 629.352 270.463 629.352 271.533C629.352 272.774 628.393 273.632 627.011 273.632C625.658 273.632 624.649 272.815 624.609 271.695Z" fill="#FDFDFC"/>
<path d="M453.018 316.747C453.482 316.747 453.859 316.371 453.859 315.906C453.859 315.442 453.482 315.065 453.018 315.065C452.554 315.065 452.177 315.442 452.177 315.906C452.177 316.371 452.554 316.747 453.018 316.747Z" stroke="#FDFDFC" stroke-width="1.51369" stroke-linecap="round" stroke-linejoin="round"/>
<path d="M459.956 316.747C460.42 316.747 460.797 316.371 460.797 315.906C460.797 315.442 460.42 315.065 459.956 315.065C459.491 315.065 459.115 315.442 459.115 315.906C459.115 316.371 459.491 316.747 459.956 316.747Z" stroke="#FDFDFC" stroke-width="1.51369" stroke-linecap="round" stroke-linejoin="round"/>
<path d="M446.08 316.747C446.545 316.747 446.921 316.371 446.921 315.906C446.921 315.442 446.545 315.065 446.08 315.065C445.616 315.065 445.239 315.442 445.239 315.906C445.239 316.371 445.616 316.747 446.08 316.747Z" stroke="#FDFDFC" stroke-width="1.51369" stroke-linecap="round" stroke-linejoin="round"/>
<path d="M527.389 332.62C527.389 328.18 530.988 324.581 535.428 324.581H676.774C681.214 324.581 684.813 328.18 684.813 332.62V381.126C684.813 385.566 681.214 389.165 676.774 389.165H535.428C530.988 389.165 527.389 385.566 527.389 381.126V332.62Z" fill="#001114"/>
<path d="M527.389 332.62C527.389 328.18 530.988 324.581 535.428 324.581H676.774C681.214 324.581 684.813 328.18 684.813 332.62V381.126C684.813 385.566 681.214 389.165 676.774 389.165H535.428C530.988 389.165 527.389 385.566 527.389 381.126V332.62Z" stroke="#035C6D" stroke-width="1.00913" stroke-linecap="round"/>
<path d="M582.865 358.577H583.692C583.763 359.253 584.399 359.727 585.246 359.727C586.134 359.727 586.74 359.212 586.74 358.456C586.74 357.81 586.296 357.416 585.398 357.224L584.984 357.144C583.712 356.891 583.056 356.246 583.056 355.216C583.056 354.025 583.944 353.208 585.236 353.208C586.487 353.208 587.456 353.975 587.517 355.004H586.689C586.609 354.409 586.013 353.985 585.256 353.985C584.449 353.985 583.914 354.459 583.914 355.166C583.914 355.771 584.318 356.155 585.105 356.316L585.519 356.397C586.901 356.679 587.608 357.345 587.608 358.415C587.608 359.656 586.649 360.514 585.266 360.514C583.914 360.514 582.905 359.697 582.865 358.577ZM590.5 360.373V353.309H594.698V354.096H591.378V356.316H594.254V357.103H591.378V359.586H594.698V360.373H590.5ZM598.216 356.457H599.941C600.607 356.457 601.051 355.983 601.051 355.277C601.051 354.57 600.607 354.096 599.941 354.096H598.216V356.457ZM597.338 360.373V353.309H599.891C601.072 353.309 601.899 354.116 601.899 355.277C601.899 356.235 601.334 356.952 600.466 357.174L602.101 360.373H601.142L599.538 357.245H598.216V360.373H597.338ZM605.79 360.373L603.611 353.309H604.509L606.366 359.394H606.406L608.263 353.309H609.141L606.961 360.373H605.79ZM610.741 360.373V359.586H612.346V354.096H610.761V353.309H614.798V354.096H613.224V359.586H614.818V360.373H610.741ZM621.192 358.577H622.029C621.878 359.687 620.94 360.474 619.779 360.474C618.175 360.474 617.075 358.99 617.075 356.841C617.075 354.681 618.175 353.208 619.759 353.208C620.889 353.208 621.797 353.955 621.969 355.004H621.121C620.98 354.409 620.445 354.015 619.789 354.015C618.679 354.015 617.963 355.135 617.963 356.851C617.963 358.567 618.679 359.666 619.799 359.666C620.496 359.666 621.051 359.233 621.192 358.577ZM625.093 360.373V353.309H629.291V354.096H625.971V356.316H628.847V357.103H625.971V359.586H629.291V360.373H625.093Z" fill="#FDFDFC"/>
<path fill-rule="evenodd" clip-rule="evenodd" d="M434.93 532.802H340.077V557.741C340.077 557.754 340.076 557.766 340.076 557.779C340.076 557.792 340.077 557.805 340.077 557.817V557.859H340.08C340.425 561.063 361.526 563.647 387.505 563.647C413.484 563.647 434.585 561.063 434.93 557.859H434.93V557.857C434.933 557.831 434.934 557.805 434.934 557.779C434.934 557.753 434.933 557.727 434.93 557.701V532.802Z" fill="#1A0E04"/>
<path d="M340.077 532.802V532.297H339.573V532.802H340.077ZM434.93 532.802H435.435V532.297H434.93V532.802ZM340.077 557.741L340.581 557.767L340.582 557.754V557.741H340.077ZM340.077 557.817H340.582V557.804L340.581 557.791L340.077 557.817ZM340.077 557.859H339.573V558.363H340.077V557.859ZM340.08 557.859L340.582 557.805L340.534 557.354H340.08V557.859ZM434.93 557.859V557.354H434.477L434.428 557.805L434.93 557.859ZM434.93 557.859V558.363H435.435V557.859H434.93ZM434.93 557.857L434.428 557.804L434.426 557.83V557.857H434.93ZM434.93 557.701H434.426V557.728L434.428 557.754L434.93 557.701ZM340.077 533.306H434.93V532.297H340.077V533.306ZM340.582 557.741V532.802H339.573V557.741H340.582ZM340.581 557.779C340.581 557.775 340.581 557.771 340.581 557.767L339.573 557.715C339.572 557.736 339.572 557.758 339.572 557.779H340.581ZM340.581 557.791C340.581 557.787 340.581 557.783 340.581 557.779H339.572C339.572 557.8 339.572 557.822 339.573 557.843L340.581 557.791ZM340.582 557.859V557.817H339.573V557.859H340.582ZM340.08 557.354H340.077V558.363H340.08V557.354ZM387.505 563.142C374.53 563.142 362.781 562.497 354.241 561.453C349.968 560.931 346.516 560.312 344.121 559.63C342.92 559.288 342.011 558.937 341.402 558.589C340.756 558.22 340.597 557.941 340.582 557.805L339.579 557.913C339.65 558.578 340.226 559.08 340.902 559.466C341.614 559.872 342.613 560.249 343.845 560.6C346.314 561.304 349.826 561.931 354.119 562.455C362.71 563.505 374.502 564.151 387.505 564.151V563.142ZM434.428 557.805C434.414 557.941 434.254 558.22 433.608 558.589C432.999 558.937 432.09 559.288 430.889 559.63C428.494 560.312 425.042 560.931 420.769 561.453C412.229 562.497 400.481 563.142 387.505 563.142V564.151C400.509 564.151 412.3 563.505 420.892 562.455C425.184 561.931 428.696 561.304 431.166 560.6C432.398 560.249 433.396 559.872 434.109 559.466C434.784 559.08 435.36 558.578 435.432 557.913L434.428 557.805ZM434.93 557.354H434.93V558.363H434.93V557.354ZM434.426 557.857V557.859H435.435V557.857H434.426ZM434.43 557.779C434.43 557.787 434.429 557.796 434.428 557.804L435.432 557.91C435.436 557.866 435.439 557.823 435.439 557.779H434.43ZM434.428 557.754C434.429 557.762 434.43 557.771 434.43 557.779H435.439C435.439 557.735 435.436 557.692 435.432 557.648L434.428 557.754ZM434.426 532.802V557.701H435.435V532.802H434.426Z" fill="#8B4503"/>
<ellipse cx="387.505" cy="532.627" rx="47.429" ry="5.86788" fill="#1A0E04" stroke="#8B4503" stroke-width="1.00913" stroke-linecap="round"/>
<path fill-rule="evenodd" clip-rule="evenodd" d="M434.93 501.253H340.077V526.192C340.077 526.205 340.076 526.218 340.076 526.231C340.076 526.243 340.077 526.256 340.077 526.269V526.31H340.08C340.425 529.514 361.526 532.098 387.505 532.098C413.484 532.098 434.585 529.514 434.93 526.31H434.93V526.308C434.933 526.282 434.934 526.257 434.934 526.231C434.934 526.205 434.933 526.179 434.93 526.153V501.253Z" fill="#1A0E04"/>
<path d="M340.077 501.253V500.749H339.573V501.253H340.077ZM434.93 501.253H435.435V500.749H434.93V501.253ZM340.077 526.192L340.581 526.218L340.582 526.205V526.192H340.077ZM340.077 526.269H340.582V526.256L340.581 526.243L340.077 526.269ZM340.077 526.31H339.573V526.815H340.077V526.31ZM340.08 526.31L340.582 526.256L340.534 525.806H340.08V526.31ZM434.93 526.31V525.806H434.477L434.428 526.256L434.93 526.31ZM434.93 526.31V526.815H435.435V526.31H434.93ZM434.93 526.308L434.428 526.256L434.426 526.282V526.308H434.93ZM434.93 526.153H434.426V526.179L434.428 526.205L434.93 526.153ZM340.077 501.758H434.93V500.749H340.077V501.758ZM340.582 526.192V501.253H339.573V526.192H340.582ZM340.581 526.231C340.581 526.226 340.581 526.222 340.581 526.218L339.573 526.166C339.572 526.188 339.572 526.209 339.572 526.231H340.581ZM340.581 526.243C340.581 526.239 340.581 526.235 340.581 526.231H339.572C339.572 526.252 339.572 526.273 339.573 526.295L340.581 526.243ZM340.582 526.31V526.269H339.573V526.31H340.582ZM340.08 525.806H340.077V526.815H340.08V525.806ZM387.505 531.594C374.53 531.594 362.781 530.948 354.241 529.905C349.968 529.383 346.516 528.763 344.121 528.081C342.92 527.739 342.011 527.389 341.402 527.041C340.756 526.672 340.597 526.392 340.582 526.256L339.579 526.364C339.65 527.029 340.226 527.531 340.902 527.917C341.614 528.324 342.613 528.701 343.845 529.052C346.314 529.755 349.826 530.382 354.119 530.907C362.71 531.956 374.502 532.603 387.505 532.603V531.594ZM434.428 526.256C434.414 526.392 434.254 526.672 433.608 527.041C432.999 527.389 432.09 527.739 430.889 528.081C428.494 528.763 425.042 529.383 420.769 529.905C412.229 530.948 400.481 531.594 387.505 531.594V532.603C400.509 532.603 412.3 531.956 420.892 530.907C425.184 530.382 428.696 529.755 431.166 529.052C432.398 528.701 433.396 528.324 434.109 527.917C434.784 527.531 435.36 527.029 435.432 526.364L434.428 526.256ZM434.93 525.806H434.93V526.815H434.93V525.806ZM434.426 526.308V526.31H435.435V526.308H434.426ZM434.43 526.231C434.43 526.239 434.429 526.247 434.428 526.256L435.432 526.361C435.436 526.318 435.439 526.274 435.439 526.231H434.43ZM434.428 526.205C434.429 526.214 434.43 526.222 434.43 526.231H435.439C435.439 526.187 435.436 526.143 435.432 526.1L434.428 526.205ZM434.426 501.253V526.153H435.435V501.253H434.426Z" fill="#8B4503"/>
<ellipse cx="387.505" cy="501.078" rx="47.429" ry="5.86788" fill="#1A0E04" stroke="#8B4503" stroke-width="1.00913" stroke-linecap="round"/>
<path fill-rule="evenodd" clip-rule="evenodd" d="M434.93 469.705H340.077V494.644C340.077 494.657 340.076 494.669 340.076 494.682C340.076 494.695 340.077 494.708 340.077 494.72V494.762H340.08C340.425 497.966 361.526 500.55 387.505 500.55C413.484 500.55 434.585 497.966 434.93 494.762H434.93V494.76C434.933 494.734 434.934 494.708 434.934 494.682C434.934 494.656 434.933 494.63 434.93 494.604V469.705Z" fill="#1A0E04"/>
<path d="M340.077 469.705V469.2H339.573V469.705H340.077ZM434.93 469.705H435.435V469.2H434.93V469.705ZM340.077 494.644L340.581 494.67L340.582 494.657V494.644H340.077ZM340.077 494.72H340.582V494.707L340.581 494.694L340.077 494.72ZM340.077 494.762H339.573V495.266H340.077V494.762ZM340.08 494.762L340.582 494.708L340.534 494.257H340.08V494.762ZM434.93 494.762V494.257H434.477L434.428 494.708L434.93 494.762ZM434.93 494.762V495.266H435.435V494.762H434.93ZM434.93 494.76L434.428 494.707L434.426 494.734V494.76H434.93ZM434.93 494.604H434.426V494.631L434.428 494.657L434.93 494.604ZM340.077 470.21H434.93V469.2H340.077V470.21ZM340.582 494.644V469.705H339.573V494.644H340.582ZM340.581 494.682C340.581 494.678 340.581 494.674 340.581 494.67L339.573 494.618C339.572 494.639 339.572 494.661 339.572 494.682H340.581ZM340.581 494.694C340.581 494.69 340.581 494.686 340.581 494.682H339.572C339.572 494.704 339.572 494.725 339.573 494.746L340.581 494.694ZM340.582 494.762V494.72H339.573V494.762H340.582ZM340.08 494.257H340.077V495.266H340.08V494.257ZM387.505 500.045C374.53 500.045 362.781 499.4 354.241 498.357C349.968 497.834 346.516 497.215 344.121 496.533C342.92 496.191 342.011 495.84 341.402 495.492C340.756 495.124 340.597 494.844 340.582 494.708L339.579 494.816C339.65 495.481 340.226 495.983 340.902 496.369C341.614 496.775 342.613 497.152 343.845 497.503C346.314 498.207 349.826 498.834 354.119 499.358C362.71 500.408 374.502 501.055 387.505 501.055V500.045ZM434.428 494.708C434.414 494.844 434.254 495.124 433.608 495.492C432.999 495.84 432.09 496.191 430.889 496.533C428.494 497.215 425.042 497.834 420.769 498.357C412.229 499.4 400.481 500.045 387.505 500.045V501.055C400.509 501.055 412.3 500.408 420.892 499.358C425.184 498.834 428.696 498.207 431.166 497.503C432.398 497.152 433.396 496.775 434.109 496.369C434.784 495.983 435.36 495.481 435.432 494.816L434.428 494.708ZM434.93 494.257H434.93V495.266H434.93V494.257ZM434.426 494.76V494.762H435.435V494.76H434.426ZM434.43 494.682C434.43 494.69 434.429 494.699 434.428 494.707L435.432 494.813C435.436 494.769 435.439 494.726 435.439 494.682H434.43ZM434.428 494.657C434.429 494.665 434.43 494.674 434.43 494.682H435.439C435.439 494.638 435.436 494.595 435.432 494.551L434.428 494.657ZM434.426 469.705V494.604H435.435V469.705H434.426Z" fill="#8B4503"/>
<ellipse cx="387.505" cy="469.53" rx="47.429" ry="5.86788" fill="#1A0E04" stroke="#8B4503" stroke-width="1.00913" stroke-linecap="round"/>
<path d="M370.803 517.801H372.528C373.194 517.801 373.638 517.326 373.638 516.62C373.638 515.913 373.194 515.439 372.528 515.439H370.803V517.801ZM369.925 521.716V514.652H372.478C373.659 514.652 374.486 515.459 374.486 516.62C374.486 517.579 373.921 518.295 373.053 518.517L374.688 521.716H373.729L372.125 518.588H370.803V521.716H369.925ZM377.288 521.716V514.652H381.486V515.439H378.165V517.659H381.041V518.446H378.165V520.929H381.486V521.716H377.288ZM384.115 521.716V514.652H386.124C387.829 514.652 388.989 516.085 388.989 518.184C388.989 520.283 387.829 521.716 386.124 521.716H384.115ZM384.993 520.929H386.124C387.324 520.929 388.101 519.859 388.101 518.184C388.101 516.509 387.324 515.439 386.124 515.439H384.993V520.929ZM390.852 521.716V520.929H392.457V515.439H390.873V514.652H394.909V515.439H393.335V520.929H394.929V521.716H390.852ZM397.378 519.92H398.205C398.276 520.596 398.911 521.07 399.759 521.07C400.647 521.07 401.253 520.555 401.253 519.799C401.253 519.153 400.809 518.759 399.91 518.567L399.497 518.487C398.225 518.234 397.569 517.589 397.569 516.559C397.569 515.369 398.457 514.551 399.749 514.551C401 514.551 401.969 515.318 402.03 516.347H401.202C401.121 515.752 400.526 515.328 399.769 515.328C398.962 515.328 398.427 515.802 398.427 516.509C398.427 517.114 398.831 517.498 399.618 517.659L400.032 517.74C401.414 518.023 402.12 518.689 402.12 519.758C402.12 520.999 401.162 521.857 399.779 521.857C398.427 521.857 397.418 521.04 397.378 519.92Z" fill="#FDFDFC"/>
<path d="M299.105 346.998C299.262 346.841 299.518 346.841 299.676 346.998L302.244 349.567C302.402 349.725 302.402 349.98 302.244 350.138C302.087 350.296 301.831 350.296 301.674 350.138L299.39 347.855L297.107 350.138C296.949 350.296 296.694 350.296 296.536 350.138C296.378 349.98 296.378 349.725 296.536 349.567L299.105 346.998ZM298.986 398.162L298.986 347.284L299.794 347.284L299.794 398.162L298.986 398.162ZM386.189 442.284L386.189 414.308L386.996 414.308L386.996 442.284L386.189 442.284ZM378.519 406.639L307.463 406.639L307.463 405.831L378.519 405.831L378.519 406.639ZM386.189 414.308C386.189 410.072 382.755 406.639 378.519 406.639L378.519 405.831C383.201 405.831 386.996 409.626 386.996 414.308L386.189 414.308ZM299.794 398.162C299.794 402.398 303.227 405.831 307.463 405.831L307.463 406.639C302.782 406.639 298.986 402.843 298.986 398.162L299.794 398.162Z" fill="#525252"/>
<path d="M127.874 346.148C128.032 345.99 128.287 345.99 128.445 346.148L131.014 348.717C131.171 348.874 131.171 349.13 131.014 349.287C130.856 349.445 130.6 349.445 130.443 349.287L128.159 347.004L125.876 349.287C125.718 349.445 125.463 349.445 125.305 349.287C125.147 349.13 125.147 348.874 125.305 348.717L127.874 346.148ZM127.756 398.149L127.756 346.433L128.563 346.433L128.563 398.149L127.756 398.149ZM386.189 460.702L386.189 414.295L386.996 414.295L386.996 460.702L386.189 460.702ZM378.519 406.626L136.232 406.626L136.232 405.819L378.519 405.819L378.519 406.626ZM386.189 414.295C386.189 410.06 382.755 406.626 378.519 406.626L378.519 405.819C383.201 405.819 386.996 409.614 386.996 414.295L386.189 414.295ZM128.563 398.149C128.563 402.385 131.997 405.819 136.232 405.819L136.232 406.626C131.551 406.626 127.756 402.831 127.756 398.149L128.563 398.149Z" fill="#525252"/>
<path d="M156.414 346.148C156.256 345.99 156.001 345.99 155.843 346.148L153.274 348.717C153.117 348.874 153.117 349.13 153.274 349.287C153.432 349.445 153.687 349.445 153.845 349.287L156.128 347.004L158.412 349.287C158.569 349.445 158.825 349.445 158.983 349.287C159.14 349.13 159.14 348.874 158.983 348.717L156.414 346.148ZM155.725 346.433V347.908H156.532V346.433H155.725ZM155.725 350.857V352.332H156.532V350.857H155.725ZM155.725 352.332C155.725 352.707 155.749 353.076 155.796 353.438L156.597 353.334C156.554 353.006 156.532 352.672 156.532 352.332H155.725ZM156.368 355.577C156.654 356.266 157.028 356.909 157.476 357.492L158.116 357.001C157.711 356.473 157.372 355.891 157.114 355.267L156.368 355.577ZM159.041 359.057C159.624 359.505 160.267 359.879 160.957 360.165L161.266 359.419C160.643 359.161 160.061 358.823 159.533 358.417L159.041 359.057ZM163.095 360.737C163.457 360.784 163.827 360.808 164.201 360.808V360.001C163.862 360.001 163.527 359.979 163.199 359.936L163.095 360.737ZM164.201 360.808H165.202V360.001H164.201V360.808ZM167.204 360.808H169.206V360.001H167.204V360.808ZM171.209 360.808H173.211V360.001H171.209V360.808ZM175.213 360.808H177.215V360.001H175.213V360.808ZM179.217 360.808H181.219V360.001H179.217V360.808ZM183.221 360.808H185.223V360.001H183.221V360.808ZM187.225 360.808H189.227V360.001H187.225V360.808ZM191.229 360.808H193.231V360.001H191.229V360.808ZM195.233 360.808H197.235V360.001H195.233V360.808ZM199.237 360.808H201.239V360.001H199.237V360.808ZM203.241 360.808H205.243V360.001H203.241V360.808ZM207.245 360.808H209.247V360.001H207.245V360.808ZM211.249 360.808H213.251V360.001H211.249V360.808ZM215.253 360.808H217.255V360.001H215.253V360.808ZM219.257 360.808H221.259V360.001H219.257V360.808ZM223.261 360.808H225.263V360.001H223.261V360.808ZM227.265 360.808H229.267V360.001H227.265V360.808ZM231.269 360.808H233.271V360.001H231.269V360.808ZM235.273 360.808H237.275V360.001H235.273V360.808ZM239.277 360.808H241.279V360.001H239.277V360.808ZM243.281 360.808H245.283V360.001H243.281V360.808ZM247.285 360.808H249.287V360.001H247.285V360.808ZM251.289 360.808H253.291V360.001H251.289V360.808ZM255.293 360.808H257.295V360.001H255.293V360.808ZM259.297 360.808H261.299V360.001H259.297V360.808ZM263.302 360.808H265.304V360.001H263.302V360.808ZM267.306 360.808H269.308V360.001H267.306V360.808ZM271.31 360.808H273.312V360.001H271.31V360.808ZM275.314 360.808H277.316V360.001H275.314V360.808ZM279.318 360.808H281.32V360.001H279.318V360.808ZM283.322 360.808H285.324V360.001H283.322V360.808ZM287.326 360.808H289.328V360.001H287.326V360.808ZM291.33 360.808H293.332V360.001H291.33V360.808ZM295.334 360.808H297.336V360.001H295.334V360.808ZM299.338 360.808H301.34V360.001H299.338V360.808ZM303.342 360.808H305.344V360.001H303.342V360.808ZM307.346 360.808H309.348V360.001H307.346V360.808ZM311.35 360.808H313.352V360.001H311.35V360.808ZM315.354 360.808H317.356V360.001H315.354V360.808ZM319.358 360.808H321.36V360.001H319.358V360.808ZM323.362 360.808H325.364V360.001H323.362V360.808ZM327.366 360.808H329.368V360.001H327.366V360.808ZM331.37 360.808H333.372V360.001H331.37V360.808ZM335.374 360.808H336.375V360.001H335.374V360.808Z" fill="#0489A4"/>
<path d="M334.642 346.148C334.485 345.99 334.229 345.99 334.072 346.148L331.503 348.717C331.345 348.874 331.345 349.13 331.503 349.287C331.66 349.445 331.916 349.445 332.074 349.287L334.357 347.004L336.64 349.287C336.798 349.445 337.054 349.445 337.211 349.287C337.369 349.13 337.369 348.874 337.211 348.717L334.642 346.148ZM333.953 346.433V347.908H334.761V346.433H333.953ZM333.953 350.857V352.332H334.761V350.857H333.953ZM333.953 352.332C333.953 352.707 333.978 353.076 334.025 353.438L334.825 353.334C334.783 353.006 334.761 352.672 334.761 352.332H333.953ZM334.597 355.577C334.883 356.266 335.257 356.909 335.705 357.492L336.345 357.001C335.939 356.473 335.601 355.891 335.342 355.267L334.597 355.577ZM337.269 359.057C337.852 359.505 338.496 359.879 339.185 360.165L339.494 359.419C338.871 359.161 338.289 358.823 337.761 358.417L337.269 359.057ZM341.323 360.737C341.686 360.784 342.055 360.808 342.43 360.808V360.001C342.09 360.001 341.756 359.979 341.428 359.936L341.323 360.737ZM342.43 360.808H343.433V360.001H342.43V360.808ZM345.44 360.808H347.447V360.001H345.44V360.808ZM349.454 360.808H351.461V360.001H349.454V360.808ZM353.467 360.808H355.474V360.001H353.467V360.808ZM357.481 360.808H359.488V360.001H357.481V360.808ZM361.495 360.808H363.501V360.001H361.495V360.808ZM365.508 360.808H367.515V360.001H365.508V360.808ZM369.522 360.808H371.529V360.001H369.522V360.808ZM373.535 360.808H375.542V360.001H373.535V360.808ZM377.549 360.808H379.556V360.001H377.549V360.808ZM381.563 360.808H383.569V360.001H381.563V360.808ZM385.576 360.808H387.583V360.001H385.576V360.808ZM389.59 360.808H391.597V360.001H389.59V360.808ZM393.603 360.808H395.61V360.001H393.603V360.808ZM397.617 360.808H399.624V360.001H397.617V360.808ZM401.631 360.808H403.638V360.001H401.631V360.808ZM405.644 360.808H407.651V360.001H405.644V360.808ZM409.658 360.808H411.665V360.001H409.658V360.808ZM413.672 360.808H415.678V360.001H413.672V360.808ZM417.685 360.808H419.692V360.001H417.685V360.808ZM421.699 360.808H423.706V360.001H421.699V360.808ZM425.712 360.808H427.719V360.001H425.712V360.808ZM429.726 360.808H431.733V360.001H429.726V360.808ZM433.74 360.808H435.746V360.001H433.74V360.808ZM437.753 360.808H439.76V360.001H437.753V360.808ZM441.767 360.808H443.774V360.001H441.767V360.808ZM445.78 360.808H447.787V360.001H445.78V360.808ZM449.794 360.808H451.801V360.001H449.794V360.808ZM453.808 360.808H455.814V360.001H453.808V360.808ZM457.821 360.808H459.828V360.001H457.821V360.808ZM461.835 360.808H463.842V360.001H461.835V360.808ZM465.848 360.808H467.855V360.001H465.848V360.808ZM469.862 360.808H471.869V360.001H469.862V360.808ZM473.876 360.808H475.883V360.001H473.876V360.808ZM477.889 360.808H479.896V360.001H477.889V360.808ZM481.903 360.808H483.91V360.001H481.903V360.808ZM485.917 360.808H487.923V360.001H485.917V360.808ZM489.93 360.808H491.937V360.001H489.93V360.808ZM493.944 360.808H495.951V360.001H493.944V360.808ZM497.957 360.808H499.964V360.001H497.957V360.808ZM501.971 360.808H503.978V360.001H501.971V360.808ZM505.985 360.808H507.991V360.001H505.985V360.808ZM509.998 360.808H512.005V360.001H509.998V360.808ZM514.012 360.808H516.019V360.001H514.012V360.808ZM518.025 360.808H520.032V360.001H518.025V360.808ZM522.039 360.808H524.046V360.001H522.039V360.808ZM526.053 360.808H527.056V360.001H526.053V360.808Z" fill="#0489A4"/>
<path d="M606.779 236.238C606.937 236.396 607.192 236.396 607.35 236.238L609.919 233.669C610.076 233.512 610.076 233.256 609.919 233.098C609.761 232.941 609.506 232.941 609.348 233.098L607.065 235.382L604.781 233.098C604.624 232.941 604.368 232.941 604.21 233.098C604.053 233.256 604.053 233.512 604.21 233.669L606.779 236.238ZM495.364 86.8849H598.992V86.0776H495.364V86.8849ZM606.661 94.5543V235.953H607.468V94.5543H606.661ZM598.992 86.8849C603.227 86.8849 606.661 90.3186 606.661 94.5543H607.468C607.468 89.8727 603.673 86.0776 598.992 86.0776V86.8849Z" fill="#0489A4"/>
<path d="M606.655 323.142C606.812 323.3 607.068 323.3 607.225 323.142L609.794 320.573C609.952 320.416 609.952 320.16 609.794 320.002C609.637 319.845 609.381 319.845 609.223 320.002L606.94 322.286L604.657 320.002C604.499 319.845 604.243 319.845 604.086 320.002C603.928 320.16 603.928 320.416 604.086 320.573L606.655 323.142ZM606.536 302.854V322.857H607.344V302.854H606.536Z" fill="#0489A4"/>
<path d="M259.733 273.206C259.891 273.364 260.147 273.364 260.304 273.206L262.873 270.638C263.031 270.48 263.031 270.224 262.873 270.067C262.715 269.909 262.46 269.909 262.302 270.067L260.019 272.35L257.735 270.067C257.578 269.909 257.322 269.909 257.165 270.067C257.007 270.224 257.007 270.48 257.165 270.638L259.733 273.206ZM251.946 209.219L251.946 209.623L251.946 209.219ZM175.25 209.219L175.25 208.815L175.25 209.219ZM175.25 209.623L251.946 209.623L251.946 208.816L175.25 208.815L175.25 209.623ZM259.615 217.292V272.921H260.422V217.292H259.615ZM167.581 201.146V105.055H166.774V201.146H167.581ZM251.946 209.623C256.181 209.623 259.615 213.057 259.615 217.292H260.422C260.422 212.611 256.627 208.816 251.946 208.816L251.946 209.623ZM175.25 208.815C171.015 208.815 167.581 205.382 167.581 201.146H166.774C166.774 205.828 170.569 209.623 175.25 209.623L175.25 208.815Z" fill="#525252"/>
<path d="M166.892 273.207C167.049 273.364 167.305 273.364 167.463 273.207L170.031 270.638C170.189 270.48 170.189 270.225 170.031 270.067C169.874 269.909 169.618 269.909 169.461 270.067L167.177 272.35L164.894 270.067C164.736 269.909 164.481 269.909 164.323 270.067C164.165 270.225 164.165 270.48 164.323 270.638L166.892 273.207ZM278.44 84.6674H175.25V85.4747H278.44V84.6674ZM166.774 93.1441V272.921H167.581V93.1441H166.774ZM175.25 84.6674C170.569 84.6674 166.774 88.4625 166.774 93.1441H167.581C167.581 88.9084 171.015 85.4747 175.25 85.4747V84.6674Z" fill="#525252"/>
<defs>
<clipPath id="clip0_184_8345">
<rect x="28.5283" y="180.042" width="714.463" height="270.583" rx="4.03651" fill="white"/>
</clipPath>
</defs>
</svg>
